<svg width="195" height="147" viewBox="0 0 195 147" fill="none" xmlns="http://www.w3.org/2000/svg">
<path d="M188.905 12.1876H170.624V6.09383C170.624 2.72545 167.898 0 164.53 0H140.155C136.787 0 134.061 2.72545 134.061 6.09383V12.1876H60.9372V6.09383C60.9372 2.72545 58.2117 0 54.8433 0H30.4684C27.1 0 24.3746 2.72545 24.3746 6.09383V12.1876H6.09382C2.72545 12.1876 0 14.9131 0 18.2815V140.156C0 143.524 2.72545 146.25 6.09382 146.25H188.905C192.273 146.25 194.999 143.524 194.999 140.156V18.2815C194.999 14.9131 192.273 12.1876 188.905 12.1876ZM182.812 134.062H12.1873V24.3749H182.811V134.062H182.812Z" fill="#9198B5"/>
<path d="M36.5625 73.1244H48.7498V60.9371H60.9371V48.7498H48.7498V36.5625H36.5625V48.7498H24.3752V60.9371H36.5625V73.1244Z" fill="#9198B5"/>
<path d="M134.062 48.75H170.624V60.9373H134.062V48.75Z" fill="#9198B5"/>
</svg>
