<svg width="36" height="34" viewBox="0 0 36 34" fill="none" xmlns="http://www.w3.org/2000/svg">
<path d="M0.877232 11.1359L3.04521 12.8298L1.00473 16.7387C-0.0154811 18.5411 1.73718 20.297 2.85388 20.9082C3.9532 21.5099 5.65946 21.5814 7.25355 21.5597L10.1229 16.869L12.2909 18.0417L8.52881 11.0708L0.877232 11.1359ZM1.19601 20.7045L5.85073 29.3041C6.78594 30.4985 8.55009 30.7808 10.378 30.7374H15.2877V22.5939L5.97829 22.5287C4.53302 22.6155 2.64132 22.3115 1.19601 20.7045ZM30.4813 4.85651L27.9488 5.93145L25.5192 2.25183C24.4374 0.4857 22.0519 1.16733 20.976 1.84772C19.9168 2.51752 19.027 3.97517 18.2732 5.37992L20.9846 10.1636L18.9079 11.4912L26.8287 11.5804L30.4813 4.85651ZM21.9578 0.496452L12.1798 0.398438C10.6818 0.637305 9.57958 2.04335 8.73141 3.66319L6.3511 7.95738L13.4736 11.9055L18.0439 3.79476C18.6686 2.48849 19.8516 0.981431 21.9578 0.496452ZM22.3831 33.6788L22.6707 30.9426L27.067 30.6016C29.1361 30.5116 29.6964 28.0948 29.623 26.8239C29.5507 25.5728 28.7071 24.0879 27.8439 22.7476L22.3455 22.7999L22.1911 20.3399L18.273 27.2243L22.3831 33.6788ZM30.3288 28.3378L35.155 19.8334C35.6724 18.4074 34.977 16.7617 33.9714 15.2345L31.3696 11.0708L24.4635 15.3862L29.3416 23.3156C30.1812 24.4952 30.9257 26.2605 30.3288 28.3378Z" fill="white"/>
</svg>
