<svg width="110" height="149" viewBox="0 0 110 149" fill="none" xmlns="http://www.w3.org/2000/svg">
<path d="M0.990723 20.5043V30.3416C1.14158 33.495 2.68282 36.4188 5.20014 38.3237L18.228 133.968C18.2325 134.003 18.2528 134.03 18.2596 134.065C18.8281 143.369 37.4873 148.392 55.0973 148.392C72.7061 148.392 91.3653 143.369 91.9339 134.064C91.9406 134.029 91.9609 134.002 91.9665 133.967L104.994 38.3225C107.511 36.4177 109.053 33.495 109.203 30.3416V20.5043C109.203 7.72519 81.3265 0.82959 55.0973 0.82959C28.8681 0.82959 0.990723 7.72519 0.990723 20.5043H0.990723ZM104.284 30.3416C104.284 37.307 83.2505 45.0988 55.0973 45.0988C26.9441 45.0988 5.9094 37.307 5.9094 30.3416V29.0852C15.0532 36.34 35.5307 40.1801 55.0973 40.1801C74.6639 40.1801 95.1413 36.34 104.284 29.0852V30.3416ZM87.0906 133.304C87.0827 133.364 87.1053 133.417 87.1019 133.474C87.0974 133.533 87.0692 133.579 87.0692 133.636C87.0692 137.647 74.6132 143.473 55.0973 143.473C35.5802 143.473 23.1253 137.647 23.1253 133.636C23.1253 133.579 23.0961 133.531 23.0927 133.474C23.0893 133.418 23.1118 133.364 23.1039 133.304L10.6524 41.9015C21.0707 47.2232 38.4116 50.0175 55.0973 50.0175C71.7829 50.0175 89.1238 47.2232 99.5421 41.9015L87.0906 133.304ZM87.0692 14.3562C87.0692 17.7832 74.3183 22.9642 55.0973 22.9642C35.8763 22.9642 23.1253 17.7832 23.1253 14.3562C23.1253 11.1465 34.3125 6.39898 51.5228 5.81018C52.7072 5.78204 53.8859 5.74827 55.0973 5.74827C56.3075 5.74827 57.4874 5.78204 58.6706 5.81018C75.882 6.39898 87.0692 11.1465 87.0692 14.3562ZM19.409 10.703C18.6502 11.7714 18.2303 13.0447 18.2066 14.3562C18.2066 23.2344 36.7645 27.8829 55.0973 27.8829C73.4289 27.8829 91.9879 23.2344 91.9879 14.3562C91.9631 13.0447 91.5443 11.7714 90.7844 10.703C99.2258 13.4972 104.284 17.0965 104.284 20.5043C104.284 27.4697 83.2505 35.2603 55.0973 35.2603C26.9441 35.2603 5.9094 27.4697 5.9094 20.5043C5.9094 17.0965 10.9688 13.4972 19.409 10.703Z" fill="#9198B5"/>
<path d="M45.8557 8.28173C45.0034 8.06895 44.1017 8.32676 43.4915 8.95834C42.8813 9.59105 42.6539 10.4996 42.8959 11.3439C43.138 12.1894 43.8112 12.8401 44.6646 13.0529L44.9618 13.1272L44.6646 13.2004C43.8112 13.4132 43.138 14.065 42.8959 14.9094C42.6539 15.7537 42.8813 16.6634 43.4915 17.295C44.1017 17.9266 45.0034 18.1844 45.8557 17.9716L55.0975 15.6603L64.3393 17.9705C65.1926 18.1878 66.0978 17.9322 66.7102 17.2995C67.3238 16.6668 67.5512 15.7549 67.308 14.9083C67.0637 14.0616 66.386 13.4098 65.5304 13.2004L65.232 13.1272L65.5304 13.0529C66.8476 12.7242 67.6492 11.389 67.3204 10.0718C66.9917 8.75457 65.6565 7.95299 64.3393 8.28173L55.0975 10.5941L45.8557 8.28173Z" fill="#9198B5"/>
<path d="M22.4348 67.2572C21.0894 67.4508 20.1561 68.696 20.3464 70.0413L25.6096 106.932C25.7345 107.801 26.3132 108.539 27.1294 108.866C27.9445 109.194 28.8722 109.061 29.5634 108.518C30.2547 107.976 30.6037 107.105 30.4798 106.235L25.2167 69.3445C25.1255 68.6982 24.7798 68.1151 24.2586 67.7244C23.7362 67.3326 23.0799 67.1649 22.4348 67.2572Z" fill="#9198B5"/>
<path d="M21.7321 62.2874C22.3783 62.1951 22.9604 61.8484 23.351 61.326C23.7406 60.8036 23.9072 60.1461 23.8126 59.5011L23.0989 54.5824C22.9942 53.6952 22.4155 52.9342 21.588 52.5964C20.7606 52.2576 19.8149 52.3949 19.118 52.9545C18.4211 53.514 18.0822 54.4079 18.2331 55.2883L18.9469 60.2069C19.1214 61.4161 20.156 62.3133 21.3775 62.3133C21.4957 62.3145 21.615 62.3055 21.7321 62.2874Z" fill="#9198B5"/>
</svg>
