<svg width="185" height="36" viewBox="0 0 185 36" fill="none" xmlns="http://www.w3.org/2000/svg">
<path d="M13.5666 22.8663H7.95802V35.3741H0.917969V1.2064H13.6135C17.6498 1.2064 20.7631 2.10596 22.9533 3.90508C25.1436 5.70421 26.2387 8.24645 26.2387 11.5318C26.2387 13.8628 25.7302 15.8106 24.7133 17.375C23.7121 18.9239 22.1867 20.1598 20.1373 21.0828L27.5294 35.0456V35.3741H19.973L13.5666 22.8663ZM7.95802 17.1638H13.637C15.4048 17.1638 16.7737 16.718 17.7437 15.8262C18.7137 14.9189 19.1986 13.6751 19.1986 12.095C19.1986 10.4836 18.7371 9.21641 17.8141 8.29338C16.9067 7.37035 15.5065 6.90884 13.6135 6.90884H7.95802V17.1638Z" fill="white"/>
<path d="M52.1695 20.5665H38.6526V29.7186H54.5162V35.3741H31.6126V1.2064H54.4693V6.90884H38.6526V15.0518H52.1695V20.5665Z" fill="white"/>
<path d="M85.469 23.9927C85.203 27.6692 83.8419 30.5634 81.3857 32.6754C78.9452 34.7874 75.7224 35.8434 71.7174 35.8434C67.3369 35.8434 63.8873 34.3729 61.3685 31.4317C58.8654 28.4749 57.6138 24.4229 57.6138 19.2759V17.1873C57.6138 13.902 58.1927 11.0077 59.3504 8.50458C60.5081 6.00145 62.1586 4.085 64.3019 2.75521C66.4608 1.40978 68.964 0.737061 71.8113 0.737061C75.7537 0.737061 78.9295 1.79307 81.3388 3.90508C83.7481 6.0171 85.1404 8.98174 85.5159 12.799H78.4759C78.3038 10.5931 77.6858 8.99739 76.622 8.01178C75.5738 7.01053 73.9702 6.5099 71.8113 6.5099C69.4646 6.5099 67.7046 7.35471 66.5312 9.04432C65.3735 10.7183 64.779 13.3231 64.7478 16.8588V19.4401C64.7478 23.1322 65.3031 25.8309 66.4139 27.5362C67.5403 29.2414 69.3081 30.0941 71.7174 30.0941C73.892 30.0941 75.5112 29.6013 76.575 28.6157C77.6545 27.6144 78.2725 26.0734 78.4289 23.9927H85.469Z" fill="white"/>
<path d="M97.5779 35.3741H90.5378V1.2064H97.5779V35.3741Z" fill="white"/>
<path d="M130.948 23.9927C130.682 27.6692 129.321 30.5634 126.864 32.6754C124.424 34.7874 121.201 35.8434 117.196 35.8434C112.816 35.8434 109.366 34.3729 106.847 31.4317C104.344 28.4749 103.093 24.4229 103.093 19.2759V17.1873C103.093 13.902 103.671 11.0077 104.829 8.50458C105.987 6.00145 107.637 4.085 109.781 2.75521C111.94 1.40978 114.443 0.737061 117.29 0.737061C121.232 0.737061 124.408 1.79307 126.818 3.90508C129.227 6.0171 130.619 8.98174 130.995 12.799H123.955C123.782 10.5931 123.165 8.99739 122.101 8.01178C121.053 7.01053 119.449 6.5099 117.29 6.5099C114.943 6.5099 113.183 7.35471 112.01 9.04432C110.852 10.7183 110.258 13.3231 110.226 16.8588V19.4401C110.226 23.1322 110.782 25.8309 111.893 27.5362C113.019 29.2414 114.787 30.0941 117.196 30.0941C119.371 30.0941 120.99 29.6013 122.054 28.6157C123.133 27.6144 123.751 26.0734 123.908 23.9927H130.948Z" fill="white"/>
<path d="M142.611 29.7186H157.559V35.3741H135.571V1.2064H142.611V29.7186Z" fill="white"/>
<path d="M182.176 20.5665H168.659V29.7186H184.522V35.3741H161.619V1.2064H184.476V6.90884H168.659V15.0518H182.176V20.5665Z" fill="white"/>
</svg>
