<svg width="11" height="17" viewBox="0 0 11 17" fill="none" xmlns="http://www.w3.org/2000/svg">
<path d="M5.38462 0C2.41556 0 0 2.51891 0 5.615C0 9.50646 5.38991 16.1538 5.38991 16.1538C5.38991 16.1538 10.7692 9.31508 10.7692 5.615C10.7692 2.51891 8.35377 0 5.38462 0ZM7.00927 7.25908C6.56129 7.72612 5.973 7.95969 5.38462 7.95969C4.79633 7.95969 4.20785 7.72612 3.76006 7.25908C2.8642 6.32498 2.8642 4.80504 3.76006 3.87085C4.19385 3.4183 4.77089 3.16905 5.38462 3.16905C5.99834 3.16905 6.57528 3.4184 7.00927 3.87085C7.90513 4.80504 7.90513 6.32498 7.00927 7.25908Z" fill="#4AD295"/>
</svg>
