<svg width="57" height="57" viewBox="0 0 57 57" fill="none" xmlns="http://www.w3.org/2000/svg">
<path d="M48.6858 36.702C45.5939 33.6102 41.9137 31.3214 37.8984 29.9358C42.1989 26.9739 45.0242 22.0168 45.0242 16.4116C45.0242 7.36225 37.662 0 28.6127 0C19.5634 0 12.2011 7.36225 12.2011 16.4116C12.2011 22.0168 15.0264 26.9739 19.3271 29.9358C15.3118 31.3214 11.6316 33.6102 8.53966 36.702C3.17796 42.0638 0.225098 49.1926 0.225098 56.7751H4.66066C4.66066 43.5679 15.4055 32.8231 28.6127 32.8231C41.8199 32.8231 52.5647 43.5679 52.5647 56.7751H57.0002C57.0002 49.1926 54.0474 42.0638 48.6858 36.702ZM28.6127 28.3876C22.0091 28.3876 16.6367 23.0152 16.6367 16.4116C16.6367 9.80791 22.0091 4.43556 28.6127 4.43556C35.2162 4.43556 40.5887 9.80791 40.5887 16.4116C40.5887 23.0152 35.2162 28.3876 28.6127 28.3876Z" fill="#4EBA71"/>
</svg>
