<svg width="57" height="57" viewBox="0 0 57 57" fill="none" xmlns="http://www.w3.org/2000/svg">
<path d="M28.4598 56.7751C20.8773 56.7751 13.7485 53.8224 8.38672 48.4607C3.02491 43.099 0.0722656 35.9702 0.0722656 28.3876C0.0722656 20.805 3.02502 13.6763 8.38672 8.31445C13.7484 2.95264 20.8773 0 28.4598 0C36.0424 0 43.1711 2.95275 48.533 8.31445C53.8948 13.6762 56.8474 20.805 56.8474 28.3876C56.8474 35.9702 53.8947 43.0989 48.533 48.4607C43.1713 53.8225 36.0424 56.7751 28.4598 56.7751ZM28.4598 3.54845C14.7635 3.54845 3.62071 14.6912 3.62071 28.3876C3.62071 42.0839 14.7635 53.2267 28.4598 53.2267C42.1562 53.2267 53.299 42.0839 53.299 28.3876C53.299 14.6912 42.1562 3.54845 28.4598 3.54845Z" fill="#4EBA71"/>
<path d="M28.46 43.1618C27.4802 43.1618 26.6858 42.3674 26.6858 41.3876C26.6858 36.9092 28.4297 32.699 31.5965 29.5322C33.5783 27.5503 34.6698 24.9154 34.6698 22.1125C34.6698 19.0444 32.1738 16.5484 29.1057 16.5484H28.7014C25.6333 16.5484 23.1373 19.0444 23.1373 22.1125V22.7582C23.1373 23.738 22.3429 24.5325 21.3631 24.5325C20.3833 24.5325 19.5889 23.738 19.5889 22.7582V22.1125C19.5889 17.0878 23.6767 13 28.7014 13H29.1057C34.1304 13 38.2182 17.0878 38.2182 22.1125C38.2182 25.8631 36.7577 29.3893 34.1056 32.0414C31.609 34.5379 30.2342 37.8571 30.2342 41.3876C30.2342 42.3674 29.4398 43.1618 28.46 43.1618Z" fill="#4EBA71"/>
<path d="M28.4608 48.0386C27.481 48.0386 26.686 47.2442 26.686 46.2643C26.686 45.2845 27.4798 44.4901 28.4597 44.4901H28.4608C29.4406 44.4901 30.235 45.2845 30.235 46.2643C30.235 47.2442 29.4406 48.0386 28.4608 48.0386Z" fill="#4EBA71"/>
</svg>
