<svg width="58" height="57" viewBox="0 0 58 57" fill="none" xmlns="http://www.w3.org/2000/svg">
<path d="M53.2128 37.382C49.7106 37.382 46.2803 36.8351 43.0262 35.7594C41.4395 35.2126 39.6406 35.6339 38.5948 36.6977L32.1493 41.5655C24.7565 37.6211 20.0233 32.8908 16.1268 25.5459L20.863 19.2528C22.0553 18.0576 22.4826 16.3154 21.9717 14.6809C20.8928 11.4118 20.3431 7.97841 20.3431 4.48225C20.3431 2.01099 18.3321 0 15.8608 0H5.40217C2.93091 0 0.919922 2.01099 0.919922 4.48225C0.919922 33.315 24.38 56.7751 53.2128 56.7751C55.6841 56.7751 57.6951 54.7642 57.6951 52.2929V41.8642C57.6951 39.393 55.6841 37.382 53.2128 37.382ZM54.7069 52.2929C54.7069 53.1176 54.0346 53.787 53.2128 53.787C26.0264 53.787 3.90804 31.6686 3.90804 4.48225C3.90804 3.65752 4.58038 2.98812 5.40217 2.98812H15.8608C16.6826 2.98812 17.3549 3.65752 17.3549 4.48225C17.3549 8.29819 17.9526 12.0454 19.1239 15.5982C19.2972 16.157 19.1568 16.7338 18.61 17.3015L13.1715 24.5029C12.8279 24.9601 12.7741 25.5726 13.034 26.0807C17.4655 34.7852 22.8472 40.1699 31.6145 44.6612C32.1195 44.9241 32.738 44.8703 33.1952 44.5238L40.5521 38.9478C40.9526 38.5534 41.5412 38.416 42.0732 38.5922C45.647 39.7726 49.3942 40.3701 53.2131 40.3701C54.0349 40.3701 54.7072 41.0395 54.7072 41.8642V52.2929H54.7069Z" fill="#4EBA71"/>
</svg>
