<svg width="58" height="58" viewBox="0 0 58 58" fill="none" xmlns="http://www.w3.org/2000/svg">
<path d="M16.4405 3.42055C16.0893 2.73743 15.4739 2.22771 14.7372 2.00981L8.90435 0.259388C7.43318 -0.19229 5.87136 0.617995 5.39365 2.08077L0.913014 15.5192C0.669958 16.2477 0.732439 17.0435 1.0862 17.7251C1.43996 18.4067 2.05481 18.9159 2.79043 19.1365L8.62615 20.8869C8.89413 20.9674 9.17242 21.0086 9.45225 21.0089C10.673 21.0083 11.755 20.223 12.134 19.0627L12.2892 18.5953L23.5424 26.844C25.0504 27.9378 27.1291 27.7776 28.4517 26.4655C29.2238 25.6985 29.6575 24.6548 29.6563 23.5664C29.6522 22.5749 29.2911 21.6179 28.639 20.8708L25.9554 18.0493C25.7546 17.8176 25.6816 17.5016 25.7604 17.2053C25.85 16.879 26.0997 16.6208 26.4228 16.5203L31.0303 14.3318C31.6005 14.0621 32.2674 14.093 32.8102 14.4141L44.7882 21.4517C46.8179 22.6454 49.3734 22.4652 51.2154 20.9985C51.9821 20.3891 52.4461 19.4767 52.4869 18.4982C52.5278 17.5197 52.1415 16.5718 51.4283 15.9006L37.7158 2.89637C36.0927 1.35475 33.7992 0.740039 31.6227 1.26328L16.7471 4.80291C16.765 4.32347 16.6595 3.84747 16.4405 3.42055ZM9.16931 19.074L3.3336 17.3236C3.08852 17.25 2.88371 17.0803 2.76586 16.8532C2.64801 16.6261 2.62718 16.3609 2.70811 16.1182L7.18875 2.68253C7.31564 2.29613 7.6753 2.03404 8.08203 2.03157C8.17531 2.0317 8.26807 2.04541 8.3574 2.07225L14.1931 3.82267C14.4384 3.89607 14.6434 4.0657 14.7614 4.29284C14.8795 4.51997 14.9004 4.78524 14.8196 5.02809L10.338 18.4637C10.18 18.9518 9.66013 19.2233 9.16931 19.074ZM32.0617 3.10358C33.6166 2.73094 35.2546 3.16992 36.4146 4.27021L50.1272 17.2716C50.4268 17.5478 50.5982 17.9361 50.6003 18.3436C50.6013 18.8011 50.392 19.2337 50.0325 19.5168C48.8052 20.4957 47.1009 20.6154 45.7487 19.8177L33.7726 12.7801C32.6899 12.1413 31.361 12.08 30.224 12.6164L25.6819 14.7812C24.8083 15.1101 24.1522 15.8475 23.9272 16.7533C23.7021 17.6591 23.9368 18.6177 24.5549 19.3172L27.2338 22.1377C27.9851 23.0142 27.9314 24.3223 27.1108 25.1342C26.4517 25.7909 25.413 25.8711 24.6609 25.3235L12.9185 16.7133L16.1973 6.87881L32.0617 3.10358Z" fill="#4EBA71"/>
<path d="M57.2123 38.2535L54.5948 33.0344C54.2895 32.4254 53.7753 31.9465 53.1461 31.6852L45.2778 28.418C44.4016 28.0527 43.4007 28.1508 42.6121 28.6792L39.3001 30.8923L36.3364 28.5931C35.2669 27.7681 33.7651 27.8076 32.7405 28.6877L28.91 31.9993C28.1929 32.6209 27.8339 33.5596 27.9533 34.501L28.5589 39.3018L24.9441 42.5425C24.0475 43.3461 23.7554 44.6279 24.2155 45.7405L27.0647 52.6381C27.3718 53.3863 27.9835 53.968 28.7462 54.2372L35.9825 56.7814C36.8256 57.0748 37.7573 56.9576 38.5015 56.4644L41.979 54.1407L47.2157 56.7511C48.2185 57.2509 49.4215 57.1141 50.2864 56.402L55.3585 52.2265C56.488 51.3016 56.7286 49.6694 55.914 48.4579L54.0583 45.6809L57.0561 41.0731C57.6028 40.2268 57.6621 39.1549 57.2123 38.2535ZM55.4683 40.0417L52.1317 45.1709L49.2607 49.3549C48.9649 49.7858 49.0744 50.3748 49.5053 50.6706C49.9362 50.9663 50.5253 50.8568 50.8211 50.426L52.9133 47.3765L54.3393 49.511C54.6082 49.916 54.5264 50.4588 54.1501 50.7666L49.079 54.9421C48.7908 55.1791 48.3901 55.2247 48.056 55.0584L43.7921 52.9296L44.7971 52.2587C45.2319 51.9682 45.3488 51.3802 45.0582 50.9454C44.7677 50.5107 44.1796 50.3937 43.7448 50.6843L41.3829 52.2616L37.452 54.891C37.2038 55.0544 36.8938 55.0935 36.6127 54.9969L29.3765 52.4527C29.1222 52.3634 28.9181 52.17 28.8153 51.9209L25.9651 45.0233C25.8117 44.6523 25.9092 44.2249 26.2083 43.957L28.9355 41.5083L29.9471 46.9365C30.0305 47.3845 30.4215 47.7095 30.8773 47.7095C30.9357 47.7097 30.994 47.7043 31.0514 47.6934C31.5651 47.5978 31.904 47.1039 31.8084 46.5902L30.4921 39.5289L29.8297 34.2682C29.7901 33.9545 29.9097 33.6418 30.1486 33.4346L33.9782 30.123C34.3194 29.8276 34.8217 29.8141 35.1781 30.0909L38.6689 32.7997L43.9028 37.2373C44.3026 37.5593 44.8862 37.5039 45.2182 37.1123C45.5502 36.7208 45.5095 36.1361 45.1264 35.7944L40.8293 32.1507L43.6681 30.2583C43.9314 30.0823 44.2653 30.0496 44.5576 30.1713L52.4241 33.4384C52.634 33.5253 52.8056 33.6848 52.9076 33.8878L55.526 39.1012C55.6738 39.403 55.6519 39.7603 55.4683 40.0417Z" fill="#4EBA71"/>
<path d="M35.9676 39.4338C35.7824 39.1463 35.4564 38.9811 35.1151 39.0017C34.7737 39.0223 34.47 39.2255 34.3207 39.5332C34.1714 39.8408 34.1997 40.2051 34.3948 40.4859L36.6867 43.9149C36.9378 44.2902 36.8887 44.7906 36.5694 45.1099L34.2576 47.4271C34.012 47.665 33.9139 48.0169 34.0009 48.3476C34.088 48.6782 34.3467 48.9362 34.6777 49.0223C35.0086 49.1084 35.3603 49.0093 35.5976 48.763L37.9093 46.4459C38.8622 45.4866 39.0089 43.9896 38.2604 42.8637L35.9676 39.4338Z" fill="#4EBA71"/>
<path d="M45.4583 39.1791L44.2329 39.9975C43.2159 40.6762 42.7478 41.9295 43.0708 43.1086L43.5014 44.6783C43.6139 45.0893 43.9874 45.3744 44.4136 45.3746C44.4986 45.3744 44.5833 45.363 44.6653 45.3406C44.9074 45.2742 45.1132 45.1144 45.2374 44.8963C45.3616 44.6783 45.3941 44.4198 45.3277 44.1777L44.8971 42.608C44.7876 42.2139 44.9437 41.794 45.2842 41.5672L46.5143 40.7479C46.8064 40.5648 46.9758 40.2374 46.9565 39.8933C46.9373 39.5492 46.7324 39.2428 46.4218 39.0935C46.1111 38.9441 45.7438 38.9755 45.463 39.1753L45.4583 39.1791Z" fill="#4EBA71"/>
</svg>
