<svg width="58" height="57" viewBox="0 0 58 57" fill="none" xmlns="http://www.w3.org/2000/svg">
<path d="M55.9957 24.753C55.994 24.7517 55.9927 24.75 55.9914 24.7487L32.7743 1.53485C31.7847 0.544905 30.469 0 29.0695 0C27.67 0 26.3542 0.544905 25.3642 1.53485L2.15931 24.7369C2.15149 24.7448 2.14324 24.753 2.13586 24.7608C0.103661 26.8046 0.107134 30.1204 2.14585 32.1589C3.07728 33.0907 4.30702 33.63 5.6223 33.6869C5.67615 33.6921 5.72999 33.6947 5.78427 33.6947H6.70918V50.7782C6.70918 54.1592 9.46047 56.9098 12.8418 56.9098H21.9251C22.8461 56.9098 23.5925 56.163 23.5925 55.2425V41.8487C23.5925 40.306 24.8479 39.0512 26.3907 39.0512H31.7483C33.2911 39.0512 34.546 40.306 34.546 41.8487V55.2425C34.546 56.163 35.2924 56.9098 36.2135 56.9098H45.2967C48.6785 56.9098 51.4293 54.1592 51.4293 50.7782V33.6947H52.2874C53.6865 33.6947 55.0022 33.1498 55.9927 32.1594C58.0336 30.1178 58.0344 26.7959 55.9957 24.753ZM53.6344 29.8017C53.2744 30.1617 52.7959 30.3601 52.2874 30.3601H49.7619C48.8409 30.3601 48.0945 31.1065 48.0945 32.0274V50.7782C48.0945 52.3204 46.8395 53.5752 45.2967 53.5752H37.8809V41.8487C37.8809 38.4677 35.13 35.7167 31.7483 35.7167H26.3907C23.0089 35.7167 20.2576 38.4677 20.2576 41.8487V53.5752H12.8418C11.2994 53.5752 10.0441 52.3204 10.0441 50.7782V32.0274C10.0441 31.1065 9.29764 30.3601 8.37663 30.3601H5.89457C5.86851 30.3584 5.84289 30.3571 5.81641 30.3566C5.31964 30.348 4.85371 30.1508 4.50459 29.8013C3.76206 29.0589 3.76206 27.8505 4.50459 27.1076C4.50503 27.1076 4.50503 27.1072 4.50546 27.1067L4.50676 27.1054L27.7229 3.89249C28.0825 3.53255 28.5606 3.33456 29.0695 3.33456C29.578 3.33456 30.0561 3.53255 30.416 3.89249L53.627 27.1007C53.6305 27.1041 53.6344 27.1076 53.6378 27.1111C54.3765 27.8548 54.3752 29.0606 53.6344 29.8017Z" fill="#4EBA71"/>
</svg>
