<svg width="174" height="174" viewBox="0 0 174 174" fill="none" xmlns="http://www.w3.org/2000/svg">
<path d="M111.428 124.895C109.606 123.8 107.736 122.7 105.866 121.62C106.305 117.874 106.306 114.084 105.868 110.344C107.745 109.261 109.614 108.161 111.427 107.071C114.48 105.236 115.753 101.366 114.387 98.0666C114.387 98.0666 114.387 98.0666 114.386 98.0663L110.402 88.4478C109.036 85.1497 105.401 83.3115 101.943 84.1729C99.888 84.6844 97.7885 85.2283 95.6964 85.7894C93.3607 82.834 90.6804 80.1543 87.7212 77.8172C88.2823 75.7248 88.8266 73.6243 89.3384 71.5688C90.1998 68.1127 88.3619 64.4762 85.0639 63.1098L75.4453 59.1258C72.1473 57.759 68.2756 59.0307 66.4404 62.0843C65.3475 63.9032 64.2465 65.7732 63.1661 67.6463C59.4203 67.2066 55.6308 67.2056 51.8898 67.6439C50.806 65.7651 49.7057 63.8958 48.6168 62.0843C46.781 59.0313 42.9103 57.7594 39.6119 59.1258L29.9934 63.1098C26.6961 64.4759 24.8575 68.1127 25.7189 71.5688C26.2317 73.6284 26.7753 75.7282 27.3354 77.8152C24.3803 80.1503 21.7003 82.8312 19.3635 85.7905C17.2664 85.2276 15.1659 84.684 13.1144 84.1729C9.65733 83.3109 6.02153 85.1504 4.65514 88.4481L0.671732 98.0663C-0.693978 101.365 0.578316 105.236 3.6306 107.07C5.44986 108.163 7.31988 109.264 9.19262 110.345C8.75329 114.09 8.75227 117.88 9.19059 121.621C7.31616 122.703 5.44715 123.803 3.62993 124.895C0.577638 126.73 -0.694655 130.6 0.671394 133.899L4.65582 143.518C6.02187 146.815 9.65666 148.654 13.1151 147.792C15.1676 147.281 17.2674 146.738 19.3608 146.176C21.6966 149.131 24.3769 151.81 27.3361 154.148C26.7742 156.243 26.2303 158.343 25.7189 160.396C24.8575 163.852 26.6954 167.489 29.9934 168.855L39.6123 172.84C40.5058 173.21 41.441 173.386 42.3664 173.386C44.8581 173.386 47.2789 172.107 48.6182 169.881C49.7029 168.076 50.8033 166.207 51.8925 164.32C55.6376 164.759 59.4281 164.759 63.1688 164.322C64.2448 166.187 65.3452 168.056 66.4418 169.882C68.277 172.935 72.1477 174.206 75.4467 172.84L85.0652 168.856C88.3626 167.49 90.2011 163.853 89.3397 160.397C88.831 158.355 88.2874 156.255 87.7232 154.151C90.6777 151.816 93.358 149.135 95.6954 146.176C97.7865 146.737 99.887 147.28 101.944 147.793C105.4 148.655 109.036 146.817 110.403 143.518L114.387 133.899C115.752 130.601 114.48 126.73 111.428 124.895ZM103.397 140.16C101.421 139.665 99.407 139.142 97.4047 138.603C94.5697 137.84 91.578 138.837 89.7828 141.144C87.7195 143.794 85.3316 146.182 82.6858 148.242C80.3819 150.037 79.3864 153.027 80.1497 155.861C80.6922 157.876 81.2152 159.888 81.7069 161.85L72.8655 165.512C71.8139 163.757 70.761 161.965 69.7317 160.176C68.2671 157.633 65.4484 156.224 62.5508 156.582C59.2233 156.996 55.8458 156.995 52.5139 156.581C49.6082 156.22 46.7918 157.629 45.3276 160.173C44.2858 161.982 43.2325 163.776 42.1924 165.512L33.351 161.85C33.8455 159.877 34.3687 157.864 34.9089 155.858C35.6722 153.024 34.6747 150.032 32.3681 148.236C29.7179 146.173 27.33 143.786 25.2694 141.14C23.4755 138.836 20.4849 137.84 17.6505 138.603C15.6458 139.143 13.633 139.666 11.6614 140.161L7.99919 131.32C9.74567 130.272 11.5392 129.219 13.3351 128.185C15.8787 126.721 17.2894 123.903 16.9293 121.005C16.5153 117.677 16.5163 114.3 16.9303 110.968C17.2918 108.067 15.8821 105.246 13.3371 103.781C11.5419 102.747 9.74804 101.694 7.99885 100.645L11.6611 91.804C13.6309 92.2978 15.6441 92.8211 17.6526 93.3616C20.4862 94.1252 23.4783 93.1274 25.2748 90.8207C27.3378 88.1706 29.7257 85.7823 32.3708 83.7224C34.6751 81.9282 35.6705 78.9372 34.9072 76.1029C34.3691 74.1046 33.8458 72.0921 33.35 70.1141L42.1914 66.4522C43.2352 68.1939 44.2885 69.9871 45.3252 71.7881C46.7901 74.3317 49.6112 75.7444 52.5061 75.382C55.8322 74.968 59.2091 74.968 62.544 75.3836C65.4464 75.7451 68.2658 74.3337 69.73 71.7901C70.7633 69.9949 71.817 68.2011 72.8649 66.4522L81.7063 70.1141C81.2114 72.0883 80.6882 74.1019 80.1483 76.1059C79.3851 78.9402 80.3825 81.9323 82.6892 83.7278C85.339 85.7908 87.7273 88.1783 89.7878 90.8238C91.5817 93.1277 94.5714 94.1232 97.4071 93.3603C99.4104 92.8207 101.423 92.2975 103.396 91.803L107.058 100.644C105.314 101.69 103.52 102.743 101.722 103.778C99.1782 105.243 97.7672 108.061 98.1276 110.959C98.5416 114.285 98.5409 117.663 98.126 120.997C97.7652 123.898 99.1755 126.718 101.719 128.183C103.512 129.215 105.306 130.268 107.058 131.318L103.397 140.16Z" fill="#9198B5"/>
<path d="M81.9528 105.867C81.9528 105.867 81.9528 105.867 81.9525 105.866C76.3745 92.399 60.8809 85.9806 47.4116 91.5589C33.9448 97.1375 27.5261 112.632 33.1047 126.1C35.8067 132.624 40.8884 137.705 47.412 140.407C50.6738 141.758 54.1011 142.434 57.5284 142.434C60.9557 142.434 64.383 141.758 67.6455 140.407C81.1124 134.829 87.5307 119.334 81.9528 105.867ZM64.6768 133.241C60.0676 135.15 54.9909 135.15 50.3803 133.241C45.7711 131.331 42.181 127.741 40.2714 123.131C36.3292 113.616 40.8647 102.667 50.3807 98.7256C52.711 97.7603 55.1263 97.3033 57.5044 97.3033C64.8379 97.3033 71.8096 101.649 74.7865 108.835C78.7279 118.351 74.1924 129.299 64.6768 133.241Z" fill="#9198B5"/>
<path d="M168.19 34.2552C166.851 34.0548 165.476 33.8602 164.091 33.6754C163.393 31.3546 162.461 29.1044 161.311 26.9674C162.159 25.8589 162.994 24.7484 163.801 23.6575C165.593 21.2337 165.334 17.7963 163.199 15.6619L157.848 10.3121C155.713 8.1764 152.275 7.91747 149.852 9.71033C148.758 10.5203 147.648 11.3553 146.542 12.1997C144.406 11.0496 142.156 10.1175 139.834 9.41925C139.649 8.03425 139.455 6.65906 139.255 5.32042C138.809 2.33989 136.196 0.0917969 133.176 0.0917969H125.609C122.589 0.0917969 119.976 2.33989 119.53 5.32008C119.33 6.65804 119.136 8.03357 118.95 9.41891C116.629 10.1172 114.379 11.0493 112.242 12.1994C111.138 11.3546 110.027 10.5193 108.933 9.70999C106.509 7.91714 103.072 8.17606 100.937 10.3114L95.5871 15.6609C93.4513 17.7959 93.1917 21.2337 94.9846 23.6578C95.7912 24.7484 96.6265 25.8592 97.4737 26.9674C96.3242 29.1041 95.3918 31.3539 94.6935 33.6754C93.3088 33.8606 91.9333 34.0548 90.5947 34.2552C87.6138 34.7013 85.3657 37.3146 85.3657 40.3348V47.9012C85.3657 50.921 87.6131 53.5346 90.594 53.9807C91.933 54.1811 93.3082 54.3757 94.6932 54.5605C95.3914 56.8817 96.3236 59.1315 97.4733 61.2685C96.6268 62.376 95.7915 63.4862 94.9832 64.5784C93.1914 67.0015 93.4503 70.4396 95.5857 72.5737L100.936 77.9241C103.071 80.0598 106.509 80.3184 108.932 78.5259C110.027 77.7166 111.137 76.881 112.242 76.0368C114.379 77.187 116.629 78.1191 118.95 78.817C119.134 80.2017 119.329 81.5772 119.529 82.9162C119.976 85.8967 122.589 88.1448 125.609 88.1448H133.176C136.196 88.1448 138.809 85.8974 139.255 82.9158C139.455 81.5769 139.649 80.2017 139.834 78.8167C142.156 78.1191 144.405 77.1863 146.542 76.0362C147.647 76.881 148.758 77.7163 149.852 78.5259C152.275 80.3188 155.713 80.0598 157.848 77.9245L163.198 72.5747C165.334 70.4396 165.593 67.0018 163.8 64.5781C162.993 63.4862 162.157 62.3753 161.311 61.2689C162.461 59.1321 163.393 56.8827 164.091 54.5608C165.476 54.3757 166.851 54.1814 168.19 53.981C171.171 53.5349 173.419 50.9216 173.419 47.9015V40.3351C173.419 37.315 171.171 34.7013 168.19 34.2552ZM166.05 46.8482C164.834 47.0245 163.593 47.1958 162.349 47.3579C159.887 47.6791 157.872 49.4263 157.216 51.8084C156.587 54.0893 155.675 56.2904 154.505 58.3503C153.283 60.5006 153.472 63.1616 154.986 65.1304C155.749 66.1228 156.506 67.1216 157.243 68.1086L153.383 71.9688C152.393 71.2299 151.394 70.4731 150.404 69.7116C148.436 68.197 145.774 68.0098 143.624 69.2306C141.563 70.401 139.362 71.3132 137.083 71.9417C134.699 72.5984 132.952 74.6136 132.632 77.0746C132.47 78.3191 132.299 79.5599 132.122 80.7757H126.663C126.486 79.5599 126.315 78.3195 126.153 77.0759C125.832 74.6139 124.085 72.5987 121.702 71.9421C119.422 71.3139 117.221 70.4017 115.161 69.2313C113.01 68.0094 110.348 68.1973 108.381 69.7116C107.39 70.4735 106.392 71.2299 105.401 71.9688L101.541 68.1086C102.278 67.1206 103.035 66.1225 103.799 65.1291C105.312 63.1609 105.501 60.4999 104.279 58.3496C103.109 56.2897 102.197 54.0883 101.568 51.8081C100.912 49.4253 98.8969 47.6784 96.4353 47.3572C95.1907 47.1948 93.9499 47.0242 92.7341 46.8472V41.3884C93.9499 41.2121 95.1904 41.0408 96.4349 40.8787C98.8966 40.5575 100.912 38.8103 101.568 36.4282C102.196 34.1476 103.108 31.9465 104.279 29.8863C105.501 27.736 105.312 25.0747 103.799 23.1065C103.034 22.1127 102.278 21.1143 101.541 20.128L105.401 16.2678C106.391 17.0066 107.39 17.7635 108.38 18.5247C110.347 20.0393 113.008 20.2282 115.161 19.006C117.22 17.8359 119.422 16.9237 121.701 16.2949C124.085 15.6382 125.832 13.623 126.152 11.162C126.315 9.91747 126.486 8.67699 126.662 7.46122H132.122C132.298 8.67665 132.469 9.91713 132.631 11.161C132.952 13.623 134.7 15.6382 137.082 16.2945C139.363 16.923 141.564 17.8355 143.624 19.0056C145.775 20.2278 148.436 20.0379 150.403 18.525C151.394 17.7635 152.392 17.0066 153.383 16.2678L157.243 20.128C156.507 21.1146 155.75 22.1134 154.985 23.1075C153.472 25.0753 153.284 27.7364 154.505 29.8866C155.675 31.9472 156.587 34.1486 157.216 36.4285C157.872 38.8113 159.887 40.5581 162.349 40.8793C163.593 41.0418 164.834 41.2127 166.05 41.3894V46.8482Z" fill="#9198B5"/>
<path d="M129.393 28.4128C120.733 28.4128 113.688 35.458 113.688 44.118C113.688 52.7783 120.733 59.8235 129.393 59.8235C138.053 59.8235 145.098 52.7783 145.098 44.118C145.098 35.458 138.053 28.4128 129.393 28.4128ZM129.393 52.842C124.583 52.842 120.669 48.9283 120.669 44.1177C120.669 39.3071 124.582 35.3937 129.393 35.3937C134.203 35.3937 138.116 39.3074 138.117 44.1177C138.117 48.9283 134.203 52.842 129.393 52.842Z" fill="#9198B5"/>
</svg>
