<svg width="165" height="164" viewBox="0 0 165 164" fill="none" xmlns="http://www.w3.org/2000/svg">
<path d="M163.637 20.2546C163.54 20.1628 144.24 1.75744 144.24 1.75744C143.503 1.04953 142.74 0.317871 141.315 0.317871H63.6177C61.3483 0.317871 59.5018 2.16403 59.5018 4.43345V17.0716L32.1176 21.7658C29.9226 22.1508 28.4464 24.2515 28.8267 26.4442L30.2165 34.5477C21.3156 37.543 12.1773 40.6307 3.35532 43.7996C1.27073 44.5618 0.176773 46.8796 0.920626 48.9767L18.4692 97.7592C18.8222 98.7408 19.7474 99.3521 20.7342 99.3521C21.0044 99.3521 21.2797 99.3062 21.5486 99.2093C22.7995 98.7594 23.4487 97.3808 22.9988 96.1299L5.70979 48.0689C14.0212 45.0932 22.6284 42.1807 31.0403 39.3493L39.3103 87.5634L48.8263 143.09C49.17 145.05 50.893 146.445 52.8376 146.445C53.0578 146.445 53.2811 146.427 53.5051 146.39L79.2788 141.967L99.4187 138.515L69.1283 149.402L45.2419 157.99L26.6911 106.392C26.2415 105.142 24.8632 104.492 23.612 104.942C22.3611 105.392 21.7119 106.77 22.1615 108.021L40.9754 160.352C41.5771 161.998 43.1361 163.021 44.7839 163.021C45.2393 163.021 45.7017 162.942 46.1523 162.778L70.7562 153.932L126.624 133.851L137.296 132.022H160.874C163.143 132.022 164.989 130.172 164.989 127.897V22.9666C164.99 21.526 164.208 20.7912 163.637 20.2546ZM157.261 20.8246H145.217L144.919 20.8258C144.342 20.8297 142.992 20.8396 142.65 20.4995C142.571 20.4209 142.478 20.1584 142.478 19.6709L142.451 6.7016L157.261 20.8246ZM160.176 127.208H64.3154V80.3024C64.3154 78.9732 63.2378 77.8956 61.9086 77.8956C60.5794 77.8956 59.5018 78.9732 59.5018 80.3024V127.896C59.5018 130.171 61.3483 132.021 63.6177 132.021H108.805L78.465 137.222L53.4403 141.517L44.0545 86.7496L33.6993 26.3781L59.5015 21.9551V69.1349C59.5015 70.4641 60.5791 71.5417 61.9083 71.5417C63.2375 71.5417 64.3151 70.4641 64.3151 69.1349V5.1311H137.633L137.665 19.6764C137.665 21.4394 138.201 22.8655 139.258 23.9155C140.883 25.5287 143.18 25.641 144.606 25.641C144.728 25.641 144.844 25.64 144.953 25.6394L160.176 25.6384V127.208Z" fill="#9198B5"/>
<path d="M75.9155 37.689C75.9155 39.0182 76.9931 40.0958 78.3223 40.0958H147.136C148.465 40.0958 149.542 39.0182 149.542 37.689C149.542 36.3598 148.465 35.2822 147.136 35.2822H78.3223C76.9931 35.2822 75.9155 36.3598 75.9155 37.689Z" fill="#9198B5"/>
<path d="M147.136 52.3804H78.3223C76.9931 52.3804 75.9155 53.458 75.9155 54.7871C75.9155 56.1163 76.9931 57.1939 78.3223 57.1939H147.136C148.465 57.1939 149.542 56.1163 149.542 54.7871C149.542 53.458 148.465 52.3804 147.136 52.3804Z" fill="#9198B5"/>
<path d="M147.136 69.479H78.3223C76.9931 69.479 75.9155 70.5566 75.9155 71.8858C75.9155 73.215 76.9931 74.2926 78.3223 74.2926H147.136C148.465 74.2926 149.542 73.215 149.542 71.8858C149.542 70.5566 148.465 69.479 147.136 69.479Z" fill="#9198B5"/>
<path d="M147.136 86.5776H78.3223C76.9931 86.5776 75.9155 87.6552 75.9155 88.9844C75.9155 90.3136 76.9931 91.3912 78.3223 91.3912H147.136C148.465 91.3912 149.542 90.3136 149.542 88.9844C149.542 87.6552 148.465 86.5776 147.136 86.5776Z" fill="#9198B5"/>
<path d="M147.136 103.676H78.3223C76.9931 103.676 75.9155 104.753 75.9155 106.083C75.9155 107.412 76.9931 108.489 78.3223 108.489H147.136C148.465 108.489 149.542 107.412 149.542 106.083C149.542 104.753 148.465 103.676 147.136 103.676Z" fill="#9198B5"/>
</svg>
