<svg width="135" height="163" viewBox="0 0 135 163" fill="none" xmlns="http://www.w3.org/2000/svg">
<path d="M127.969 55.3162L121.048 45.6104V33.0252C121.048 32.3121 120.765 31.6281 120.261 31.1238C119.756 30.6195 119.072 30.3362 118.359 30.3362H102.225C101.512 30.3362 100.828 30.6195 100.323 31.1238C99.819 31.6281 99.5357 32.3121 99.5357 33.0252V45.6104L92.6174 55.3125C91.86 56.3703 91.1623 57.4695 90.5273 58.605L95.2228 61.2268C95.7604 60.2646 96.3513 59.3332 96.9929 58.4369L104.414 48.0302C104.739 47.575 104.913 47.0298 104.914 46.4706V35.7143H115.67V46.4706C115.67 47.0304 115.845 47.5762 116.17 48.0319L123.599 58.4493C125.11 60.5583 126.333 62.8604 127.233 65.294H107.603V70.6721H128.645C128.94 72.3145 129.097 73.9785 129.115 75.6469V76.0503H107.603V81.4284H129.115V86.8065H107.603V92.1847H128.071L127.424 94.1581C126.095 98.1076 126.094 102.383 127.42 106.334L128.393 109.303C128.869 110.719 129.113 112.203 129.115 113.697H107.603V119.075H129.115V124.453H107.603V129.832H129.115V135.21H107.603V140.588H129.115V151.344C129.114 152.77 128.547 154.137 127.539 155.145C126.53 156.154 125.163 156.721 123.737 156.722H117.902C117.546 156.722 117.193 156.652 116.864 156.515C116.536 156.378 116.237 156.177 115.986 155.924C114.458 154.45 112.417 153.626 110.293 153.626C108.169 153.626 106.128 154.45 104.6 155.924L108.402 159.727C108.906 159.23 109.586 158.952 110.293 158.952C111 158.952 111.679 159.23 112.184 159.727C112.933 160.481 113.824 161.079 114.805 161.486C115.787 161.894 116.84 162.102 117.902 162.1H123.737C126.589 162.097 129.323 160.963 131.34 158.946C133.356 156.93 134.49 154.196 134.494 151.344V113.697C134.491 111.63 134.155 109.576 133.5 107.615L132.526 104.646C131.562 101.792 131.564 98.6993 132.531 95.8455L133.505 92.8727C133.816 91.8985 134.064 90.9056 134.248 89.9C134.407 88.8764 134.489 87.8424 134.494 86.8065V75.6469C134.489 72.8511 134.157 70.0655 133.504 67.3471C132.455 63.0163 130.576 58.9304 127.969 55.3162Z" fill="#9198B5"/>
<path d="M0.0398639 59.9163V141.26C0.0460028 146.786 2.24364 152.083 6.15061 155.99C10.0576 159.897 15.3548 162.095 20.8801 162.101C25.3936 162.114 29.7873 160.649 33.3893 157.929C34.6297 157 36.1381 156.497 37.6881 156.497C39.2382 156.497 40.7465 157 41.9869 157.929C45.3797 160.485 49.4762 161.936 53.7213 162.086L53.921 156.711C50.7741 156.602 47.7369 155.527 45.2222 153.632C43.0477 152.004 40.4044 151.124 37.6881 151.124C34.9718 151.124 32.3285 152.004 30.154 153.632C27.4835 155.648 24.2261 156.733 20.8801 156.723C16.7808 156.718 12.8507 155.087 9.95205 152.189C7.05338 149.29 5.4228 145.36 5.41799 141.26V127.143H53.8212V121.765H5.41799V67.9834H64.5774V62.6053H5.41799V59.9163C5.40578 53.0906 7.56334 46.4377 11.5791 40.9183C15.5948 35.3989 21.2609 31.2987 27.7591 29.2098C28.2998 29.0351 28.7712 28.6933 29.1055 28.2338C29.4398 27.7742 29.6198 27.2205 29.6196 26.6522V19.5803H45.754V26.6522C45.7537 27.2205 45.9337 27.7742 46.268 28.2338C46.6023 28.6933 47.0737 29.0351 47.6145 29.2098C53.7116 31.1636 59.0863 34.8936 63.0499 39.9217C67.0134 44.9499 69.3852 51.0471 69.8611 57.4319L75.2234 57.0225C74.695 49.9083 72.1474 43.0926 67.88 37.3759C63.6126 31.6592 57.8025 27.279 51.1321 24.7497V19.5803H56.5102V14.2022H51.1321V3.4459C51.1321 2.73272 50.8488 2.04874 50.3445 1.54444C49.8402 1.04015 49.1562 0.756836 48.443 0.756836H26.9305C26.2173 0.756836 25.5333 1.04015 25.0291 1.54444C24.5248 2.04874 24.2414 2.73272 24.2414 3.4459V14.2022H18.8633V19.5803H24.2414V24.7497C17.1134 27.46 10.9797 32.2767 6.65641 38.5587C2.33313 44.8408 0.025252 52.2903 0.0398639 59.9163ZM29.6196 6.13496H45.754V14.2022H29.6196V6.13496Z" fill="#9198B5"/>
<path d="M22.752 37.5506L25.7301 42.0279C27.3825 40.9312 29.1774 40.0662 31.0649 39.4572L29.4104 34.3389C27.0544 35.0998 24.8141 36.1805 22.752 37.5506Z" fill="#9198B5"/>
<path d="M16.3049 57.5226C16.8299 52.8279 18.8832 48.4359 22.1489 45.0225L18.2702 41.2944C14.1859 45.5646 11.6169 51.0579 10.958 56.93L16.3049 57.5226Z" fill="#9198B5"/>
<path d="M16.1745 73.3621H10.7964V78.7402H16.1745V73.3621Z" fill="#9198B5"/>
<path d="M16.1745 84.1182H10.7964V108.32H16.1745V84.1182Z" fill="#9198B5"/>
<path d="M75.3332 89.4958H69.9551V97.563H75.3332V89.4958Z" fill="#9198B5"/>
<path d="M80.7108 59.9165C74.6789 59.9165 69.9545 63.4604 69.9545 67.9837V77.0801L63.6688 80.2341C62.3237 80.8997 61.192 81.9288 60.4018 83.2047C59.6117 84.4807 59.1947 85.9524 59.1983 87.4532V100.252C59.1982 100.67 59.2953 101.082 59.482 101.455L61.5697 105.631L59.482 109.806C59.2953 110.179 59.1982 110.591 59.1983 111.009V116.387C59.1982 116.804 59.2953 117.216 59.482 117.59L61.5697 121.765L59.482 125.94C59.2953 126.314 59.1982 126.726 59.1983 127.143V132.521C59.1982 132.939 59.2953 133.35 59.482 133.724L61.5697 137.899L59.482 142.075C59.2953 142.448 59.1982 142.86 59.1983 143.277V154.034C59.2016 156.172 60.0525 158.222 61.5647 159.734C63.0769 161.247 65.1269 162.098 67.2655 162.101H94.1561C94.771 162.098 95.3839 162.029 95.984 161.895C97.76 161.484 99.3442 160.483 100.477 159.055C101.611 157.627 102.226 155.857 102.223 154.034V143.277C102.223 142.86 102.126 142.448 101.94 142.075L99.8519 137.899L101.94 133.724C102.126 133.35 102.223 132.939 102.223 132.521V127.143C102.223 126.726 102.126 126.314 101.94 125.94L99.8519 121.765L101.94 117.59C102.126 117.216 102.223 116.804 102.223 116.387V111.009C102.223 110.591 102.126 110.179 101.94 109.806L99.8519 105.631L101.94 101.455C102.126 101.082 102.223 100.67 102.223 100.252V87.4532C102.227 85.953 101.811 84.4817 101.021 83.2062C100.231 81.9307 99.0997 80.902 97.7551 80.2368L91.467 77.0801V67.9837C91.467 63.4604 86.7427 59.9165 80.7108 59.9165ZM80.7108 65.2946C83.9935 65.2946 86.0889 66.8872 86.0889 67.9837C86.0889 69.0802 83.9935 70.6728 80.7108 70.6728C77.4281 70.6728 75.3327 69.0802 75.3327 67.9837C75.3327 66.8872 77.4281 65.2946 80.7108 65.2946ZM95.347 85.0451C95.7969 85.2663 96.1757 85.6092 96.4405 86.0349C96.7053 86.4605 96.8455 86.9519 96.8452 87.4532V99.6182L95.183 102.942H72.6436V108.32H95.183L96.8452 111.643V115.753L95.183 119.076H72.6436V124.454H95.183L96.8452 127.777V131.887L95.183 135.21H72.6436V140.588H95.183L96.8452 143.912V154.034C96.8414 154.633 96.6395 155.215 96.271 155.687C95.9025 156.16 95.3879 156.498 94.8075 156.648C94.5936 156.695 94.3753 156.721 94.1561 156.723H67.2655C66.8504 156.721 66.4414 156.624 66.0702 156.438C65.699 156.252 65.3756 155.984 65.1253 155.653C64.7681 155.189 64.5751 154.619 64.5764 154.034V143.912L66.9818 139.102C67.1683 138.729 67.2654 138.317 67.2654 137.899C67.2654 137.482 67.1683 137.07 66.9818 136.697L64.5764 131.887V127.777L66.9818 122.968C67.1683 122.594 67.2654 122.182 67.2654 121.765C67.2654 121.348 67.1683 120.936 66.9818 120.562L64.5764 115.753V111.643L66.9818 106.833C67.1683 106.46 67.2654 106.048 67.2654 105.631C67.2654 105.213 67.1683 104.801 66.9818 104.428L64.5764 99.6182V87.4532C64.5763 86.9513 64.7169 86.4594 64.9822 86.0333C65.2475 85.6072 65.6268 85.2639 66.0772 85.0424L73.849 81.1433C74.2951 80.92 74.6701 80.5769 74.9322 80.1524C75.1943 79.7279 75.3329 79.2388 75.3327 78.74V74.9632C77.0348 75.681 78.8634 76.0509 80.7108 76.0509C82.5581 76.0509 84.3868 75.681 86.0889 74.9632V78.74C86.0888 79.2387 86.2275 79.7276 86.4895 80.152C86.7516 80.5764 87.1266 80.9194 87.5726 81.1426L95.347 85.0451Z" fill="#9198B5"/>
</svg>
