<svg width="187" height="36" viewBox="0 0 187 36" fill="none" xmlns="http://www.w3.org/2000/svg">
<path d="M12.8825 22.6925H7.17025V35.5187H0V0.481283H12.9303C17.0413 0.481283 20.2121 1.40374 22.4429 3.24866C24.6736 5.09358 25.789 7.70053 25.789 11.0695C25.789 13.4599 25.2711 15.4572 24.2354 17.0615C23.2157 18.6497 21.6621 19.9171 19.5748 20.8636L27.1035 35.1818V35.5187H19.4075L12.8825 22.6925ZM7.17025 16.8449H12.9542C14.7548 16.8449 16.149 16.3877 17.1369 15.4733C18.1248 14.5428 18.6187 13.2674 18.6187 11.6471C18.6187 9.99465 18.1487 8.69519 17.2086 7.74866C16.2844 6.80214 14.8583 6.32888 12.9303 6.32888H7.17025V16.8449Z" fill="#4AD295"/>
<path d="M52.1994 20.3342H38.4325V29.7193H54.5895V35.5187H31.2623V0.481283H54.5417V6.32888H38.4325V14.6791H52.1994V20.3342Z" fill="#4AD295"/>
<path d="M86.1146 23.8476C85.8438 27.6176 84.4575 30.5856 81.9559 32.7513C79.4702 34.9171 76.1878 36 72.1088 36C67.6473 36 64.1339 34.492 61.5685 31.4759C59.0191 28.4438 57.7444 24.2888 57.7444 19.0107V16.869C57.7444 13.5 58.3339 10.5321 59.513 7.96524C60.6921 5.3984 62.3732 3.43316 64.5561 2.06952C66.755 0.68984 69.3044 0 72.2044 0C76.2197 0 79.4543 1.08289 81.9081 3.24866C84.3619 5.41444 85.78 8.45455 86.1624 12.369H78.9922C78.8169 10.107 78.1875 8.47059 77.104 7.45989C76.0365 6.43316 74.4032 5.91979 72.2044 5.91979C69.8143 5.91979 68.0217 6.7861 66.8267 8.51872C65.6476 10.2353 65.0421 12.9064 65.0102 16.5321V19.1791C65.0102 22.9652 65.5759 25.7326 66.7072 27.4813C67.8544 29.2299 69.655 30.1043 72.1088 30.1043C74.3236 30.1043 75.9727 29.5989 77.0562 28.5882C78.1557 27.5615 78.7851 25.9813 78.9444 23.8476H86.1146Z" fill="#4AD295"/>
<path d="M98.4475 35.5187H91.2772V0.481283H98.4475V35.5187Z" fill="#4AD295"/>
<path d="M132.434 23.8476C132.164 27.6176 130.777 30.5856 128.276 32.7513C125.79 34.9171 122.508 36 118.429 36C113.967 36 110.454 34.492 107.888 31.4759C105.339 28.4438 104.064 24.2888 104.064 19.0107V16.869C104.064 13.5 104.654 10.5321 105.833 7.96524C107.012 5.3984 108.693 3.43316 110.876 2.06952C113.075 0.68984 115.624 0 118.524 0C122.539 0 125.774 1.08289 128.228 3.24866C130.682 5.41444 132.1 8.45455 132.482 12.369H125.312C125.137 10.107 124.507 8.47059 123.424 7.45989C122.356 6.43316 120.723 5.91979 118.524 5.91979C116.134 5.91979 114.342 6.7861 113.146 8.51872C111.967 10.2353 111.362 12.9064 111.33 16.5321V19.1791C111.33 22.9652 111.896 25.7326 113.027 27.4813C114.174 29.2299 115.975 30.1043 118.429 30.1043C120.643 30.1043 122.293 29.5989 123.376 28.5882C124.475 27.5615 125.105 25.9813 125.264 23.8476H132.434Z" fill="#4AD295"/>
<path d="M144.313 29.7193H159.538V35.5187H137.143V0.481283H144.313V29.7193Z" fill="#4AD295"/>
<path d="M184.61 20.3342H170.843V29.7193H187V35.5187H163.673V0.481283H186.952V6.32888H170.843V14.6791H184.61V20.3342Z" fill="#4AD295"/>
</svg>
