<svg width="285" height="273" viewBox="0 0 285 273" fill="none" xmlns="http://www.w3.org/2000/svg">
<path d="M63.8572 143.117C41.653 158.918 25.0375 149.719 11.3229 166.846C-10.2489 193.788 1.65551 253.02 28.8356 264.267C56.5177 275.72 84.7334 234.961 123.901 249.279C140.244 255.254 139.003 263.802 155.172 269.263C187.146 280.065 225.906 258.083 246.482 238.039C280.508 204.894 297.246 145.457 272.749 95.6571C239.708 28.4892 146.852 9.85429 112.641 36.9543C82.5635 60.7827 104.096 114.485 63.8572 143.117Z" fill="#EFF4FA"/>
<path d="M179.869 198.273L131.994 184.436L84.1184 198.273C83.7038 199.103 83.5654 199.933 83.5654 200.902V229.498H180.422V200.902C180.422 199.933 180.284 199.103 179.869 198.273Z" fill="#646D73"/>
<path d="M180.422 229.498V200.902C180.422 199.933 180.284 199.103 179.869 198.273L131.994 184.436V229.498H180.422Z" fill="#474F54"/>
<path d="M243.149 14.1063H207.798C207.859 11.7693 208.096 9.56786 208.096 7.18795C208.096 3.31321 205.052 0.269592 201.177 0.269592H62.8101C58.9354 0.269592 55.8918 3.31321 55.8918 7.18795C55.8918 9.56786 56.1284 11.7693 56.1883 14.1063H20.8388C17.0148 14.1063 13.9204 17.2006 13.9204 21.0247V38.5502C13.9204 77.1795 44.8648 108.56 82.9992 110.58C90.9438 121.518 100.373 129.636 111.1 134.209C109.44 167.832 90.2068 191.216 85.6411 196.059C84.9488 196.612 84.3954 197.443 84.1186 198.273H179.869C179.592 197.443 179.039 196.612 178.347 196.059C173.642 191.216 154.547 167.97 152.887 134.209C163.617 129.635 173.102 121.516 181.054 110.573C219.155 108.52 250.067 77.1579 250.067 38.5502V21.0247C250.067 17.2006 246.973 14.1063 243.149 14.1063ZM27.7571 38.5502V27.943H56.7819C58.5775 50.8095 63.5361 75.0275 73.9579 95.6082C47.8342 89.7253 27.7571 66.4289 27.7571 38.5502ZM236.23 38.5502C236.23 66.4146 216.171 89.6999 190.067 95.5962C200.406 75.0159 205.392 51.0323 207.205 27.943H236.23V38.5502Z" fill="#FED843"/>
<path d="M243.149 14.1063H207.798C207.859 11.7692 208.096 9.56783 208.096 7.18791C208.096 3.31318 205.052 0.269562 201.177 0.269562H131.994V198.273H179.869C179.592 197.443 179.039 196.612 178.347 196.059C173.642 191.216 154.547 167.97 152.887 134.209C163.617 129.635 173.103 121.516 181.054 110.573C219.155 108.52 250.067 77.1578 250.067 38.5502V21.0246C250.067 17.2006 246.973 14.1063 243.149 14.1063ZM236.23 38.5502C236.23 66.4146 216.171 89.6999 190.067 95.5962C200.407 75.0159 205.393 51.0323 207.205 27.943H236.23V38.5502Z" fill="#FABE2C"/>
<path d="M143.033 88.2692L131.993 82.533L120.953 88.2692C118.643 89.4582 115.818 89.2622 113.697 87.7286C111.576 86.1882 110.508 83.5804 110.941 80.9994L112.968 68.7096L104.117 59.9741C102.191 58.096 101.602 55.3116 102.388 52.9072C103.198 50.4207 105.347 48.5966 107.941 48.205L120.237 46.3537L125.804 35.2262C128.156 30.5374 135.83 30.5374 138.182 35.2262L143.749 46.3537L156.045 48.205C158.639 48.5971 160.788 50.4212 161.599 52.9072C162.409 55.4001 161.747 58.1365 159.869 59.9741L151.019 68.7096L153.046 80.9994C153.478 83.5804 152.411 86.1882 150.289 87.7286C148.182 89.2558 145.363 89.4813 143.033 88.2692Z" fill="#FABE2C"/>
<path d="M143.034 88.2691C145.364 89.4812 148.183 89.2557 150.289 87.7286C152.411 86.1881 153.478 83.5803 153.046 80.9993L151.019 68.7096L159.87 59.974C161.748 58.1365 162.41 55.4 161.599 52.9071C160.788 50.4207 158.64 48.5965 156.046 48.2049L143.749 46.3536L138.182 35.2261C137.007 32.8817 134.5 31.7093 131.994 31.7093V82.5329L143.034 88.2691Z" fill="#FF9100"/>
<path d="M187.341 236.416H76.6469C72.8229 236.416 69.7285 233.322 69.7285 229.498C69.7285 225.674 72.8229 222.579 76.6469 222.579H187.341C191.165 222.579 194.259 225.674 194.259 229.498C194.259 233.322 191.165 236.416 187.341 236.416Z" fill="#474F54"/>
<path d="M187.34 222.579H131.994V236.416H187.34C191.164 236.416 194.259 233.322 194.259 229.498C194.259 225.674 191.164 222.579 187.34 222.579Z" fill="#32393F"/>
</svg>
