<svg width="172" height="171" viewBox="0 0 172 171" fill="none" xmlns="http://www.w3.org/2000/svg">
<path d="M42.5773 52.3423C41.3257 52.0249 40.447 50.9022 40.4373 49.6119V3.45515C40.4373 1.88763 39.1664 0.616699 37.5989 0.616699H20.5681C19.0006 0.616699 17.7297 1.88763 17.7297 3.45515V49.6119C17.72 50.9036 16.8385 52.0249 15.587 52.3423C6.82078 54.6125 0.697589 62.5222 0.698975 71.578V168.085C0.698975 169.653 1.9699 170.924 3.53743 170.924H54.6296C56.1971 170.924 57.468 169.653 57.468 168.085V71.578C57.468 62.5222 51.3449 54.6111 42.5773 52.3423ZM23.4066 6.29361H34.7604V11.9705H23.4066V6.29361ZM51.7911 134.024H6.37588V94.2857H51.7911V134.024ZM6.37588 165.247V139.701H51.7911V165.247H6.37588ZM51.7911 88.6088H6.37588V71.578C6.37311 65.1084 10.7458 59.4564 17.009 57.8348C20.765 56.8702 23.3955 53.4898 23.4066 49.6119V17.6474H34.7604V49.6119C34.7673 53.4912 37.3979 56.8771 41.1553 57.8431C47.4157 59.4633 51.7898 65.1111 51.7911 71.578V88.6088Z" fill="#9198B5"/>
<path d="M103.676 64.0864C99.4459 57.3202 97.2047 49.5005 97.2075 41.5215V3.45466C97.2075 1.88714 95.9366 0.616211 94.3691 0.616211H77.3383C75.7708 0.616211 74.4999 1.88714 74.4999 3.45466V41.5215C74.5027 49.4978 72.2643 57.3146 68.0371 64.0781L67.6421 64.7032C62.8467 72.3717 60.3048 81.235 60.3076 90.2798V168.085C60.3076 169.653 61.5785 170.923 63.1461 170.923H108.561C110.129 170.923 111.4 169.653 111.4 168.085V90.2798C111.401 81.2322 108.858 72.3662 104.06 64.6949L103.676 64.0864ZM80.1768 6.29312H91.5306V11.97H80.1768V6.29312ZM105.723 165.247H65.9845V90.2798C65.9818 82.3035 68.2201 74.4867 72.4473 67.7232L72.8423 67.0981C77.6377 59.4296 80.1796 50.5663 80.1768 41.5215V17.6469H91.5306V41.5215C91.5292 50.5691 94.0725 59.4351 98.8707 67.1064L99.2546 67.7149C103.485 74.4811 105.726 82.3008 105.723 90.2798V165.247Z" fill="#9198B5"/>
<path d="M85.8534 99.9619C78.0158 99.9619 71.6611 106.317 71.6611 114.154C71.6611 121.992 78.0158 128.346 85.8534 128.346C93.691 128.346 100.046 121.992 100.046 114.154C100.036 106.319 93.6883 99.9716 85.8534 99.9619ZM85.8534 122.67C81.1508 122.67 77.338 118.857 77.338 114.154C77.338 109.452 81.1508 105.639 85.8534 105.639C90.556 105.639 94.3688 109.452 94.3688 114.154C94.3688 118.857 90.556 122.67 85.8534 122.67Z" fill="#9198B5"/>
<path d="M154.575 27.8795L154.545 27.8656C154.189 27.6148 153.977 27.2073 153.977 26.7721V3.45466C153.977 1.88714 152.706 0.616211 151.138 0.616211H134.107C132.54 0.616211 131.269 1.88714 131.269 3.45466V26.7666C131.269 27.2018 131.057 27.6092 130.701 27.8601L130.668 27.8795C120.392 34.7151 114.223 46.2421 114.238 58.5828V168.085C114.238 169.653 115.509 170.923 117.077 170.923H168.169C169.736 170.923 171.007 169.653 171.007 168.085V58.5828C171.021 46.2421 164.852 34.7137 154.575 27.8795ZM136.946 6.29312H148.3V11.97H136.946V6.29312ZM165.33 165.247H119.915V58.5828C119.903 48.1603 125.103 38.4225 133.772 32.6361L133.823 32.6029C135.776 31.3028 136.947 29.1116 136.946 26.7666V17.6469H148.3V26.7666C148.298 29.1116 149.47 31.3028 151.422 32.6029L151.474 32.6334C160.141 38.4225 165.342 48.1603 165.33 58.5828V165.247Z" fill="#9198B5"/>
<path d="M128.43 74.416C126.862 74.416 125.591 75.6869 125.591 77.2545V151.054C125.591 152.622 126.862 153.893 128.43 153.893H156.814C158.382 153.893 159.653 152.622 159.653 151.054V77.2545C159.653 75.6869 158.382 74.416 156.814 74.416H128.43ZM153.976 148.216H131.268V80.0929H153.976V148.216Z" fill="#9198B5"/>
</svg>
