<svg width="346" height="208" viewBox="0 0 346 208" fill="none" xmlns="http://www.w3.org/2000/svg">
<path d="M22.0352 207.232L128.58 206.673L156.981 206.665L166.389 206.661L194.843 206.652L324.839 206.616C324.839 206.616 354.573 168.136 322.812 131.588C289.882 93.6959 273.87 124.556 263.748 71.2177C238.267 -63.0413 -13.6419 15.1016 52.4312 129.352C76.2221 170.49 5.60067 148.624 22.0352 207.232Z" fill="#F9FCFF"/>
<path d="M145.278 200.763C145.278 200.763 145.683 205.445 144.693 205.933L132.027 205.907C132.027 205.907 132.027 204.445 134.061 204.12C136.095 203.795 139.67 202.604 140.275 199.951C140.88 197.298 145.278 200.763 145.278 200.763Z" fill="#233862"/>
<path d="M181.625 198.95C181.625 198.95 182.006 205.446 181.016 205.932L168.348 205.906C168.348 205.906 168.348 204.444 170.382 204.119C172.416 203.794 175.991 202.602 176.596 199.949C177.202 197.298 181.625 198.95 181.625 198.95Z" fill="#233862"/>
<path d="M182.056 199.749C182.056 199.749 179.542 201.045 178.465 201.281C177.269 201.545 175.023 201.377 175.023 201.377C170.715 189.827 157.353 142.877 157.353 142.877C156.773 155.859 154.429 168.807 151.995 179.215C151.93 179.494 151.864 179.772 151.8 180.045V180.049C151.741 180.299 151.681 180.548 151.622 180.793C151.62 180.804 151.616 180.814 151.615 180.826C148.659 193.108 145.696 201.472 145.696 201.472C145.696 201.472 144.931 202.44 142.801 201.997C140.359 201.491 139.545 200.417 139.545 200.417C141.125 150.391 142.007 122.18 142.007 122.18C142.007 122.18 163.155 110.755 168.899 120.521C174.644 130.289 182.056 199.749 182.056 199.749Z" fill="#2A4E96"/>
<path d="M173.535 127.27C170.793 117.468 170.342 108.161 170.364 100.456C170.393 89.4887 171.378 81.766 168.077 80.4632C168.077 80.4632 157.88 77.4989 150.861 76.1924C149.744 75.5772 148.502 74.9321 147.561 74.5495C145.345 73.6506 136.705 61.0906 135.24 58.0838C133.774 55.0769 131.35 41.9756 131.35 41.9756L127.983 43.0483C127.983 43.0483 126.972 57.7537 127.457 61.587C127.942 65.4202 138.64 81.9022 139.528 83.3438C143.336 97.2653 139.528 119.92 141.268 124.971C142.164 127.569 158.768 132.33 167.856 131.731C168.309 131.701 168.744 131.657 169.156 131.6C169.158 131.6 169.159 131.598 169.16 131.598C171.311 131.299 172.875 130.613 173.447 129.408C173.727 128.824 173.772 128.115 173.535 127.27Z" fill="#AEC3FF"/>
<path d="M131.35 41.9756C131.35 41.9756 133.253 36.4483 131.861 36.287C130.47 36.1269 126.978 36.1432 126.548 37.0771C126.116 38.0111 127.984 43.0483 127.984 43.0483L131.35 41.9756Z" fill="#FFB27D"/>
<path d="M95.1299 55.7471L83.8989 48.9558C84.3978 48.1319 85.1829 47.5868 86.0494 47.3742C86.917 47.1617 87.8647 47.278 88.6899 47.7768C89.4163 48.2156 90.3615 47.9819 90.8003 47.2567L93.8396 42.2307L96.4689 43.821L93.4296 48.847C93.2095 49.2096 93.1583 49.6284 93.252 50.011C93.3458 50.3936 93.5858 50.7399 93.9497 50.9587C94.7736 51.4563 95.3174 52.2427 95.5312 53.1091C95.745 53.9755 95.6275 54.9232 95.1299 55.7471Z" fill="#ED7D2B"/>
<path d="M95.1302 55.7471L87.6638 51.2324C85.9347 49.7884 86.7798 48.5532 87.6475 48.3394C88.5152 48.1268 89.4629 48.2431 90.288 48.742C91.0144 49.1808 91.9596 48.947 92.3984 48.2219L95.4378 43.1959L96.4692 43.8197L93.4299 48.8457C93.2099 49.2083 93.1586 49.6271 93.2524 50.0097C93.3461 50.3923 93.5862 50.7386 93.95 50.9574C94.7739 51.455 95.3178 52.2414 95.5316 53.1078C95.7454 53.9755 95.6278 54.9232 95.1302 55.7471Z" fill="#F99746"/>
<path d="M127.983 23.0069L118.893 34.4641C115.734 39.6889 110.27 42.1944 105.036 42.4045C105.034 42.4045 105.034 42.4045 105.033 42.4045C103.249 42.4757 101.494 42.2819 99.8632 41.8369C98.5167 41.4693 96.9664 42.1944 96.115 43.601L95.9375 43.8948C95.4099 44.7649 94.9673 45.4963 94.9673 45.4963L93.0531 44.3386C93.0531 44.3386 93.4995 43.5997 94.0296 42.722C94.9635 41.1742 94.9123 39.2851 93.8883 38.1399C89.5137 33.2464 87.8734 25.1511 92.0567 18.2334L98.2117 5.00208L127.983 23.0069Z" fill="#F99746"/>
<path d="M89.9638 27.5328C90.7065 23.2394 88.6298 20.9015 86.4331 18.4247C84.6753 16.4444 82.8587 14.3977 82.4673 11.3508C82.0335 7.97143 83.6076 4.52075 86.3831 2.76665C88.4935 1.43264 90.8252 1.39013 92.7844 2.64538C95.5649 4.43198 96.5989 7.88891 95.7737 12.6424C95.1824 16.0468 93.8596 18.9223 93.8033 19.0436L92.058 18.2347C92.1068 18.1284 96.9102 7.58385 91.7442 4.26445C89.9626 3.11797 88.2635 3.85312 87.4108 4.39322C85.2892 5.73474 84.0402 8.49528 84.3752 11.107C84.6903 13.5663 86.2356 15.3066 87.8709 17.1495C90.1626 19.7313 92.7594 22.6568 91.8592 27.8616L89.9638 27.5328Z" fill="#ED7D2B"/>
<path d="M111.631 40.6366C115.088 37.9848 118.123 38.7375 121.336 39.5339C123.906 40.1702 126.564 40.8291 129.443 39.7602C132.637 38.5737 134.962 35.5781 135.227 32.3062C135.428 29.8169 134.383 27.7328 132.361 26.5813C129.488 24.9485 125.946 25.6386 122.119 28.5767C119.379 30.6809 117.447 33.1889 117.366 33.2939L118.892 34.4629C118.963 34.3703 126.071 25.2185 131.41 28.2516C133.253 29.2968 133.39 31.1434 133.309 32.1499C133.106 34.6516 131.241 37.0396 128.773 37.956C126.449 38.8187 124.189 38.2586 121.798 37.666C118.447 36.8358 114.65 35.8944 110.458 39.1088L111.631 40.6366Z" fill="#F99746"/>
<path d="M105.033 42.4045C103.249 42.4758 101.493 42.282 99.863 41.8369C98.5164 41.4693 96.9661 42.1945 96.1147 43.601L95.9372 43.8948C95.2683 44.2399 94.7632 44.6762 94.5244 45.2288L93.0541 44.3399C93.0541 44.3399 93.5005 43.601 94.0306 42.7233C94.9645 41.1755 94.9132 39.2864 93.8893 38.1412C89.5147 33.2477 87.8743 25.1523 92.0577 18.2347L98.2126 5.00336L103.135 7.9802C103.132 7.97895 83.1497 35.0568 105.033 42.4045Z" fill="#ED7D2B"/>
<path d="M96.1753 46.6616L91.2719 43.696C90.6067 43.2934 90.3904 42.4195 90.793 41.7544C91.1956 41.0892 92.0695 40.8729 92.7347 41.2755L97.6394 44.2411C98.3045 44.6437 98.5208 45.5176 98.1182 46.1827C97.7144 46.8491 96.8417 47.0642 96.1753 46.6616Z" fill="#F99746"/>
<path d="M97.6748 30.1834L98.2012 29.3132C100.694 30.661 101.015 30.5009 102.039 28.8081L107.188 20.2939C107.913 19.0949 107.547 18.7449 106.654 18.0435L106.02 17.4996L106.489 16.7232C108.428 17.6071 110.735 18.3598 112.421 18.7048L105.168 30.6997C104.115 32.4401 104.129 32.7376 106.457 34.3054L105.93 35.1756L97.6748 30.1834Z" fill="white"/>
<path d="M126.547 37.0772C126.547 37.0772 126.367 38.9801 126.979 39.3389C127.589 39.6977 127.804 37.0772 127.804 37.0772C127.804 37.0772 127.84 39.2276 128.306 39.3727C128.773 39.5189 129.06 36.8972 129.06 36.8972C129.06 36.8972 129.11 38.9801 129.427 38.9076C129.743 38.8363 129.958 36.8972 129.958 36.8972C129.958 36.8972 130.102 38.4087 130.532 38.1374C130.963 37.8661 131.372 36.2433 131.372 36.2433L126.547 37.0772Z" fill="#FFB27D"/>
<path d="M131.349 41.9756C131.349 41.9756 132.649 40.9554 132.937 40.0214C133.224 39.0875 134.068 37.5184 133.62 37.3284C133.171 37.1384 131.86 39.16 131.86 39.16L131.349 41.9756Z" fill="#FFB27D"/>
<path d="M153.901 74.6883L153.737 75.5385C153.737 75.5385 152.981 78.1503 156.175 79.1855C159.37 80.2219 162.064 80.7008 162.38 78.6329C162.399 76.9875 162.359 74.4183 162.597 73.1005C162.685 72.6104 162.82 72.0991 163.028 71.5327L156.713 70.1524L154.785 70.0887L153.901 74.6883Z" fill="#FFB27D"/>
<path d="M154.787 70.0875L154.199 73.1881C160.199 74.7771 162.823 72.0991 163.03 71.5327L156.715 70.1525L154.787 70.0875Z" fill="#E2915A"/>
<path d="M163.954 70.2462C162.094 74.0282 156.982 72.4529 154.827 71.5777C154.221 71.3327 153.85 71.1414 153.85 71.1414C153.197 70.755 153.115 69.5323 153.341 68.0245C153.786 65.0402 155.433 60.9381 156.223 59.9917C157.413 58.5689 159.287 57.1949 164.114 59.9204C168.944 62.6472 166.34 65.4015 163.954 70.2462Z" fill="#FFB27D"/>
<path d="M155.698 55.7471C155.698 55.7471 158.029 56.2122 161.049 55.7971C163.499 55.4608 165.962 57.2799 166.725 58.0026C166.741 57.8513 166.738 57.6388 166.657 57.4037C166.657 57.4037 166.978 57.8013 166.926 58.2164C166.958 58.2589 166.971 58.2851 166.958 58.2889C166.958 58.2889 167.437 58.3339 167.692 58.5477C167.692 58.5477 167.496 58.4614 167.386 58.5714C167.375 58.5827 167.36 58.5914 167.344 58.5989C170.289 61.202 169.093 66.6755 167.646 67.6145C165.906 68.7435 162.918 71.8516 162.918 71.8516C162.918 71.8516 163.024 70.7176 163.634 69.4648C164.244 68.2134 163.105 67.8933 161.834 66.8893C160.562 65.8854 162.234 64.5426 161.26 63.1698C160.286 61.7971 155.5 61.1007 155.779 60.338C154.241 59.2303 155.649 55.9234 155.698 55.7471Z" fill="#233862"/>
<path d="M156.465 68.8522C156.465 68.8522 156.154 69.3198 154.909 68.7672C154.909 68.7672 153.862 68.3034 154.105 67.752C154.104 67.7533 155.29 67.737 156.465 68.8522Z" fill="white"/>
<path d="M155.062 81.636C155.062 81.636 152.182 100.749 130.639 114.021L128.628 119.861H136.404C136.404 119.861 155.699 103.68 156.993 82.1848L155.062 81.636Z" fill="#ED7D2B"/>
<path d="M155.062 81.636V78.7391L158.613 79.7443L156.994 82.1861L155.062 81.636Z" fill="#DB6516"/>
<path d="M153.901 74.6884L151.823 76.465C151.823 76.465 151.248 78.9454 152.648 81.6372L156.837 79.243C156.838 79.2418 154.364 78.0465 153.901 74.6884Z" fill="#9DB0F4"/>
<path d="M156.837 79.2417C156.837 79.2417 157.252 81.4909 158.344 82.6049C158.344 82.6049 163.062 81.7785 164.373 79.5168L162.396 76.4299C162.396 76.4287 161.923 78.5354 156.837 79.2417Z" fill="#9DB0F4"/>
<path d="M185.111 128.779C185.111 128.779 185.119 133.057 184.726 133.909C184.332 134.76 182.566 137.532 181.753 138.125C180.939 138.717 181.928 134.698 181.673 133.963C181.417 133.227 181.104 135.413 180.727 135.503C180.351 135.593 180.249 133.666 180.161 132.97C180.073 132.273 181.765 130.356 182.27 128.801C182.773 127.249 185.111 128.779 185.111 128.779Z" fill="#FFB27D"/>
<path d="M168.011 80.462C168.011 80.462 172.161 81.5923 174.972 87.7797C177.921 94.2673 185.812 108.679 186.106 110.668C186.398 112.657 185.583 131.233 185.583 131.233C185.583 131.233 182.13 131.367 181.064 129.729C181.064 129.729 179.861 113.422 179.33 112.536C178.798 111.649 165.208 95.4425 166.352 91.3304C167.496 87.2171 168.011 80.462 168.011 80.462Z" fill="#AEC3FF"/>
<path d="M173.447 129.409C172.419 130.291 171.03 131.059 169.16 131.6C169.158 131.6 169.157 131.601 169.156 131.601C168.696 131.733 168.264 131.773 167.856 131.732C160.262 130.949 161.428 101.445 165.108 99.2644C168.986 96.9665 170.362 100.456 170.362 100.456C170.341 108.161 170.792 117.468 173.533 127.27C173.772 128.115 173.727 128.824 173.447 129.409Z" fill="#9DB0F4"/>
<path d="M151.622 180.793C151.672 180.563 151.731 180.314 151.8 180.049C151.741 180.299 151.681 180.548 151.622 180.793Z" fill="#233862"/>
<path d="M151.995 179.215C154.319 168.217 151.813 138.745 152.932 138.185C154.081 137.611 157.353 142.877 157.353 142.877C156.773 155.859 154.429 168.807 151.995 179.215Z" fill="#233862"/>
<path d="M95.175 201.678L94.5049 196.854L97.3192 194.503L98.2044 200.889L95.175 201.678Z" fill="#FFB27D"/>
<path d="M104.518 205.988H93.0474C93.0474 205.988 92.7724 204.24 93.3712 202.914C93.9451 201.641 94.839 200.856 94.9203 199.88C95.6492 200.631 96.5456 201.113 98.2047 200.891C98.4072 201.22 99.5162 202.984 100.195 203.47C100.945 204.009 104.287 203.816 104.518 205.988Z" fill="#233862"/>
<path d="M102.214 136.536C101.464 142.57 100.85 148.259 100.351 153.561C97.6821 181.812 98.2059 199.08 98.2059 199.08C98.2059 199.08 98.0134 199.592 96.3581 199.599C95.4229 199.604 94.5064 199.4 94.5064 199.4C94.5064 199.4 88.529 180.952 88.9903 170.453C89.0454 169.191 89.1929 168.043 89.4567 167.055C90.8907 161.684 84.1506 141.143 91.4771 133.494C98.8023 125.845 102.559 133.766 102.214 136.536Z" fill="#F99746"/>
<path d="M102.214 136.536C101.464 142.57 100.85 148.259 100.351 153.561L88.9903 170.453C89.0454 169.191 89.1929 168.043 89.4567 167.055C90.8907 161.684 84.1506 141.143 91.4771 133.494C98.8023 125.845 102.559 133.766 102.214 136.536Z" fill="#ED7D2B"/>
<path d="M111.241 78.9766C111.241 78.9766 110.964 77.5976 110.653 76.5461C110.515 76.081 111.476 73.0229 112.139 72.6466C112.803 72.2703 114.535 74.3295 114.045 75.911C113.794 76.7237 113.38 79.3667 113.38 79.3667L111.241 78.9766Z" fill="#FFB27D"/>
<path d="M111.241 78.9766C111.241 78.9766 110.88 78.1777 110.553 78.0477C110.227 77.9177 109.877 76.6111 109.638 76.0923C109.638 76.0923 109.869 75.7535 110.275 76.1898C110.522 76.4561 111.072 77.2363 111.072 77.2363L111.241 78.9766Z" fill="#FFB27D"/>
<path d="M63.8887 83.6151C63.8187 83.7601 63.7212 84.0202 63.6337 84.264C63.6324 84.1977 63.6312 84.1314 63.6299 84.0664C63.6249 83.5813 61.8121 80.9383 61.0669 80.772C60.3218 80.607 59.2691 83.0825 60.2005 84.4515C60.6794 85.1541 61.8471 87.5609 61.8471 87.5609L63.7787 86.5632C63.7787 86.5632 63.89 85.693 64.1638 85.4742C64.4376 85.2554 64.3901 83.9026 64.4664 83.3375C64.4689 83.3363 64.1488 83.0787 63.8887 83.6151Z" fill="#FFB27D"/>
<path d="M75.9374 200.232C75.7749 198.685 75.7349 194.617 75.7349 194.617C75.7349 194.617 79.8807 193.292 79.7282 194.202C78.978 198.674 79.1818 200.889 79.1818 200.889L77.5052 201.891L75.9374 200.232Z" fill="#FFB27D"/>
<path d="M98.7523 136.248C98.7523 136.248 82.7379 180.144 79.586 199.185C79.586 199.185 78.8558 199.687 77.4931 199.52C75.9478 199.332 75.5252 198.259 75.5252 198.259C75.5252 198.259 72.6321 175.437 78.382 167.514C82.3328 162.071 76.6779 138.165 85.8797 136.248C95.0803 134.331 98.7523 136.248 98.7523 136.248Z" fill="#F99746"/>
<path d="M95.9072 94.0221C95.9072 94.0208 95.9072 94.0208 95.9072 94.0208C95.9047 94.0021 95.8997 93.9821 95.8935 93.9646C95.7997 93.5783 95.6972 93.1982 95.5872 92.8206C95.5872 92.8194 95.5872 92.8194 95.5872 92.8194C95.2521 91.6654 94.8533 90.5664 94.4232 89.5962C94.1756 89.0399 93.9193 88.5248 93.6568 88.0647C93.6168 87.9934 93.578 87.9284 93.5393 87.8596L93.538 87.8584C92.9191 86.8182 92.2828 86.0993 91.7089 85.8767C90.6612 85.4717 89.4972 85.5842 88.6958 85.7517C88.8721 85.5067 89.2709 85.3666 89.2709 85.3666C88.7583 85.3666 87.7131 86.0293 87.7131 86.0293C80.3379 84.3802 80.768 94.8135 81.2706 97.1777C81.7707 99.5432 79.3965 100.692 76.047 103.111C69.6558 107.729 69.7633 112.622 69.7633 112.622C69.8208 112.646 69.8833 112.675 69.9496 112.707C70.2071 112.074 70.7522 110.875 71.3236 110.622C71.3074 110.678 70.8423 112.231 70.7097 113.1C71.6837 113.636 73.0302 114.467 74.493 115.404C74.493 115.404 74.493 115.404 74.4942 115.405C76.4521 116.658 78.6125 118.099 80.3429 119.27C80.2604 118.793 80.1791 118.114 80.3004 117.731L80.8517 119.44L80.9243 119.662C82.0295 120.411 82.9009 121.01 83.3435 121.317C83.3885 121.349 83.4285 121.376 83.4648 121.401C83.5935 121.49 83.6635 121.539 83.6635 121.539C83.516 120.935 84.1611 119.361 85.2439 117.375C85.3176 117.237 85.3964 117.097 85.4764 116.954C85.8265 116.327 86.2166 115.666 86.6354 114.984C86.7867 114.737 86.9392 114.491 87.098 114.24C87.098 114.239 87.0992 114.239 87.0992 114.239C87.2255 114.036 87.3543 113.836 87.4881 113.632L87.4893 113.631C87.8031 113.146 88.1269 112.658 88.4582 112.169C89.3159 110.903 90.2236 109.645 91.12 108.492C92.4228 106.813 93.7005 105.354 94.7707 104.399C94.8058 104.327 94.8395 104.253 94.8683 104.179C95.0358 103.79 95.1646 103.358 95.2633 102.918C95.2946 102.785 95.3221 102.653 95.3459 102.52C95.6122 101.116 95.6172 99.7232 95.6147 99.3919C95.7009 100.748 95.6659 101.771 95.5759 102.545C95.5559 102.715 95.5334 102.871 95.5071 103.018V103.019C95.4496 103.349 95.3846 103.621 95.3134 103.848C95.4884 103.63 95.6422 103.391 95.7784 103.131C95.8672 102.961 95.9485 102.783 96.021 102.595C96.8874 100.392 96.6549 97.1052 95.9072 94.0221Z" fill="#163560"/>
<path d="M94.5207 104.592C94.5457 104.599 92.4553 106.111 90.6837 105.899C89.0172 105.701 87.6606 103.779 87.6819 103.772C88.3408 103.535 88.397 102.574 87.7869 98.5693L88.1032 98.5843L93.413 98.8381C93.413 98.8381 93.5368 100.478 93.7606 102.009C93.9481 103.293 94.2069 104.498 94.5207 104.592Z" fill="#FFB27D"/>
<path d="M93.4123 98.838C93.4123 98.838 93.5361 100.478 93.7599 102.009C90.8618 102.356 88.944 99.9507 88.1025 98.5842L93.4123 98.838Z" fill="#ED975D"/>
<path d="M87.4871 98.1017C87.4871 98.1017 85.6192 95.9362 84.9516 93.9471C84.4752 92.5268 84.414 87.0082 89.9638 86.9795C89.9638 86.9795 91.5654 86.9007 93.1982 87.6821C94.4972 88.3035 96.4551 89.77 95.2536 94.7722L94.9961 96.4401L87.4871 98.1017Z" fill="#163560"/>
<path d="M102.883 135.405C102.883 135.405 95.9744 139.511 87.2989 137.401C87.1964 137.376 80.1562 136.252 80.1562 136.252C80.2775 135.92 81.1877 130.482 81.3065 130.178C82.8455 126.206 85.6586 104.652 88.0078 103.589C88.6079 104.243 90.3233 104.689 91.791 104.559C93.4814 104.41 94.0465 103.68 93.9065 102.894C95.7768 103.778 97.2134 104.6 97.2134 104.6C98.9225 107.162 102.883 135.405 102.883 135.405Z" fill="white"/>
<path d="M94.5915 100.142C94.5915 100.142 87.7801 101.27 87.1425 97.0177C86.5049 92.7643 85.1971 90.0463 89.5192 89.1461C93.8413 88.2459 94.9315 89.7412 95.4891 91.109C96.048 92.478 96.3481 99.7395 94.5915 100.142Z" fill="#FFB27D"/>
<path d="M92.6137 88.5798C92.6137 88.5798 91.486 93.8483 88.7267 95.0123C85.9674 96.1775 84.6084 95.5937 84.6084 95.5937C84.6084 95.5937 86.5488 93.5183 86.5525 90.3977C86.5525 90.3977 90.8509 86.4144 92.6137 88.5798Z" fill="#163560"/>
<path d="M92.2104 89.0536C92.2104 89.0536 93.772 89.96 94.2734 90.9927C94.7747 92.0254 95.2598 94.2321 95.8987 94.0595C95.8987 94.0595 96.8026 90.4588 94.9347 88.7747C92.9531 86.9894 92.2104 89.0536 92.2104 89.0536Z" fill="#163560"/>
<path d="M113.427 79.0754C113.149 78.9779 112.742 78.7466 112.209 78.6991C111.735 78.6566 111.139 78.8104 111.139 78.8104C111.139 78.8104 109.217 90.7565 109.075 91.3903C108.932 92.023 100.832 101.149 98.6475 101.112C96.6758 101.08 94.3391 102.601 93.9053 102.894C93.9053 102.894 98.4974 112.606 98.7275 114.43C98.9763 116.415 101.354 146.983 101.354 146.983C101.354 146.983 101.213 148.404 103.87 147.64C106.527 146.875 107.192 146.242 107.192 146.242C107.192 146.242 104.751 122.178 104.239 114.694C104.17 113.688 104.006 112.76 103.772 111.902C103.547 111.074 103.725 110.19 104.23 109.498C107.589 104.887 112.894 97.4153 113.189 95.8275C113.623 93.4933 113.427 79.0754 113.427 79.0754Z" fill="#2B478B"/>
<path d="M85.495 205.988H74.024C74.024 205.988 73.7489 204.24 74.3478 202.914C74.9217 201.641 75.8156 200.856 75.8969 199.88C76.6257 200.631 77.5222 201.113 79.1813 200.891C79.3838 201.22 80.4928 202.984 81.1716 203.47C81.9205 204.009 85.2637 203.816 85.495 205.988Z" fill="#233862"/>
<path d="M93.3739 115.373C92.9876 112.993 88.0516 103.441 88.0516 103.441C88.0516 103.441 84.931 102.509 82.8781 103.253C80.8239 103.997 70.1993 97.9979 69.858 97.4453C69.5179 96.8927 63.8268 86.2881 63.8268 86.2881C63.8268 86.2881 63.3555 86.0143 62.5991 86.4093C61.8514 86.7994 61.8477 87.5608 61.8477 87.5608C61.8477 87.5608 66.2398 100.912 67.4088 102.978C68.1139 104.223 74.0376 108.56 78.631 111.807C79.5074 112.427 79.9687 113.482 79.825 114.547C79.2073 119.113 79.0498 121.684 78.3397 129.519C77.7508 136.018 77.5245 148.6 77.5245 148.6C77.5245 148.6 82.6643 150.379 86.2112 150.615C89.7582 150.851 90.5321 147.111 90.5321 147.111C90.5321 147.111 93.7715 117.819 93.3739 115.373Z" fill="#2B478B"/>
<path d="M92.3594 98.0404C92.3594 98.0404 93.187 98.5267 94.1635 98.3792C94.8324 98.2792 94.9849 97.4853 94.9849 97.4853C94.9849 97.4853 94.5198 97.339 93.7772 97.4878C93.0358 97.6366 92.3594 98.0404 92.3594 98.0404Z" fill="white"/>
<path d="M225.048 97.149C225.048 97.149 227.163 100.636 223.185 102.831C223.185 102.831 226.243 103.934 227.308 103.518C227.308 103.518 227.044 103.793 226.843 103.893C226.843 103.893 229.717 104.806 231.15 104.307C232.583 103.809 235.667 89.8926 227.184 89.1587C227.184 89.1587 220.493 86.7632 219.079 94.2297C217.665 101.696 215.087 100.972 215.087 100.972C215.087 100.972 215.712 101.5 216.058 101.597C216.058 101.597 216.615 101.561 216.786 101.332C216.786 101.332 216.572 101.71 216.406 101.802C216.406 101.802 219.119 102.828 220.781 102.25C222.442 101.672 225.021 98.7631 225.048 97.149Z" fill="#163560"/>
<path d="M216.532 207.004H227.354C227.354 207.004 227.614 205.355 227.048 204.104C226.506 202.904 225.664 202.162 225.586 201.242C224.898 201.95 224.052 202.406 222.488 202.195C222.297 202.506 221.25 204.169 220.61 204.629C219.904 205.137 216.749 204.957 216.532 207.004Z" fill="#233862"/>
<path d="M225.475 202.871C225.475 202.871 224.551 203.17 223.589 203.256C221.883 203.407 221.636 202.901 221.636 202.901C221.636 202.901 219.942 187.822 214.458 158.996C213.667 154.833 213.355 152.529 213.069 148.828C212.984 147.72 212.9 146.487 212.809 145.042C212.56 141.158 213.15 134.619 216.066 132.901C217.391 132.118 219.197 132.333 221.626 134.245C221.816 134.396 222.013 134.558 222.212 134.73C229.317 140.876 226.404 158.529 226.692 166.828C226.741 168.203 226.876 169.322 227.159 170.09C227.526 171.081 228.313 172.455 228.492 173.75C229.981 184.511 225.475 202.871 225.475 202.871Z" fill="#2B478B"/>
<path d="M226.689 166.827L213.067 148.828C212.982 147.72 212.898 146.488 212.807 145.042C212.558 141.158 213.148 134.619 216.064 132.901L221.624 134.245C221.814 134.396 222.011 134.558 222.21 134.73C229.314 140.876 226.401 158.527 226.689 166.827Z" fill="#233862"/>
<path d="M265.19 184.229L260.685 174.388C260.685 174.388 259.078 174.838 258.175 175.873C257.309 176.866 256.681 176.69 254.708 175.32C255.451 176.467 255.552 177.144 256.011 178.654C256.373 178.699 258.436 180.696 260.55 181.246C261.393 181.464 263.236 184.883 265.19 184.229Z" fill="#233862"/>
<path d="M217.965 137.219C217.965 137.219 227.663 170.932 231.217 173.103C234.77 175.273 253.452 178.258 257.249 179.885C257.249 179.885 257.712 179.223 257.441 177.805C257.381 177.49 256.844 176.358 256.844 176.358C256.844 176.358 245.243 167.637 237.607 166.757C235.711 166.538 241.465 137.6 228.66 136.444C216.963 135.388 217.965 137.219 217.965 137.219Z" fill="#2B478B"/>
<path d="M204.13 81.9086C204.13 81.9086 204.391 80.6083 204.685 79.6156C204.815 79.1768 203.909 76.2912 203.283 75.9361C202.656 75.5811 201.022 77.5239 201.485 79.0155C201.722 79.7819 202.112 82.2749 202.112 82.2749L204.13 81.9086Z" fill="#FFB27D"/>
<path d="M204.129 81.9085C204.129 81.9085 204.47 81.1546 204.778 81.0321C205.085 80.9095 205.415 79.6768 205.642 79.188C205.642 79.188 205.423 78.8679 205.042 79.2792C204.809 79.5305 204.289 80.2657 204.289 80.2657L204.129 81.9085Z" fill="#FFB27D"/>
<path d="M248.806 86.2831C248.872 86.4207 248.965 86.6645 249.046 86.8945C249.047 86.832 249.049 86.7695 249.049 86.7082C249.052 86.2506 250.764 83.7564 251.467 83.6001C252.169 83.4438 253.163 85.7793 252.284 87.0708C251.833 87.7347 250.73 90.0039 250.73 90.0039L248.907 89.0624C248.907 89.0624 248.802 88.241 248.544 88.0347C248.285 87.8272 248.331 86.5519 248.257 86.0181C248.259 86.0206 248.561 85.778 248.806 86.2831Z" fill="#FFB27D"/>
<path d="M219.904 106.075C219.88 106.081 221.851 107.509 223.524 107.307C225.097 107.12 226.376 105.307 226.356 105.299C225.735 105.077 225.681 104.17 226.257 100.392L225.96 100.406L220.95 100.646C220.95 100.646 220.832 102.194 220.621 103.637C220.445 104.849 220.201 105.987 219.904 106.075Z" fill="#FFB27D"/>
<path d="M220.949 100.646C220.949 100.646 220.832 102.194 220.621 103.637C223.355 103.965 225.164 101.695 225.958 100.406L220.949 100.646Z" fill="#ED975D"/>
<path d="M226.542 99.9521C226.542 99.9521 228.305 97.9092 228.933 96.0326C229.382 94.6923 229.441 89.4863 224.204 89.4588C224.204 89.4588 222.692 89.3838 221.152 90.1214C219.927 90.7078 218.079 92.0918 219.213 96.8115L219.455 98.3843L226.542 99.9521Z" fill="#163560"/>
<path d="M213.622 135.92C213.622 135.92 218.535 139.021 226.719 137.029C226.815 137.006 231.373 136.279 231.373 136.279C231.259 135.967 226.47 128.055 226.358 127.768C224.906 124.021 228.268 106.132 226.052 105.128C225.485 105.745 223.867 106.167 222.483 106.043C220.889 105.902 220.354 105.213 220.487 104.473C218.723 105.307 217.366 106.083 217.366 106.083C215.752 108.5 213.622 135.92 213.622 135.92Z" fill="#FFB27D"/>
<path d="M219.837 101.877C219.837 101.877 226.263 102.943 226.865 98.9294C227.466 94.9173 228.7 92.3518 224.623 91.5029C220.545 90.654 219.517 92.0643 218.991 93.3558C218.464 94.6448 218.182 101.496 219.837 101.877Z" fill="#FFB27D"/>
<path d="M221.705 90.9678C221.705 90.9678 222.769 95.9388 225.372 97.0378C227.975 98.1368 229.257 97.5854 229.257 97.5854C229.257 97.5854 227.426 95.6275 227.423 92.6832C227.424 92.6832 223.369 88.9249 221.705 90.9678Z" fill="#163560"/>
<path d="M222.084 91.4154C222.084 91.4154 220.61 92.2706 220.137 93.2445C219.664 94.2185 219.207 96.3014 218.605 96.1388C218.605 96.1388 217.752 92.7407 219.515 91.1529C221.384 89.4675 222.084 91.4154 222.084 91.4154Z" fill="#163560"/>
<path d="M250.314 90.0064C250.314 90.0064 246.169 102.604 245.066 104.552C244.402 105.727 236.936 110.375 232.603 113.438C232.555 113.471 232.5 113.539 232.436 113.637C232.435 113.64 232.434 113.641 232.431 113.644C231.35 115.316 227.988 125.668 228.792 127.526C232.171 135.335 234.488 138.356 235.331 140.546C235.752 141.639 235.189 142.863 234.087 143.256C232.698 143.749 230.652 144.372 228.239 144.786C227.779 144.866 227.305 144.937 226.82 144.998C220.16 145.844 215.65 144.281 213.361 143.126C212.279 142.579 211.625 141.443 211.692 140.233C211.83 137.762 213.065 135.317 213.623 129.375C214.045 124.867 210.154 118.007 210.319 115.608C210.384 114.659 211.131 113.524 211.535 112.787C211.535 112.787 211.535 112.786 211.536 112.785C212.251 111.482 212.644 110.305 212.167 109.653C208.998 105.303 202.154 99.3045 201.874 97.8067C201.465 95.605 201.65 82.001 201.65 82.001C201.911 81.9098 202.297 81.691 202.799 81.646C203.247 81.6059 203.808 81.751 203.808 81.751C203.808 81.751 205.621 93.0232 205.756 93.6196C205.891 94.2159 213.533 102.826 215.593 102.791C217.453 102.76 220.078 104.197 220.485 104.473C220.485 104.473 218.815 107.432 218.398 111.429C218.108 114.225 219.975 112.982 221.149 111.068C222.737 108.476 225.934 104.786 225.934 104.786C225.934 104.786 228.534 104.109 230.472 104.812C232.41 105.513 242.434 99.8521 242.756 99.332C243.078 98.8106 248.447 88.8061 248.447 88.8061C248.447 88.8061 248.892 88.5486 249.606 88.9199C250.31 89.2875 250.314 90.0064 250.314 90.0064Z" fill="#F99746"/>
<path d="M221.704 99.6983C221.704 99.6983 221.429 100.252 221.059 100.263C220.689 100.273 219.75 100.185 219.686 100.088C219.622 99.9921 219.466 99.4132 219.466 99.4132C219.466 99.4132 221.02 99.3507 221.704 99.6983Z" fill="white"/>
<path d="M234.085 143.256C232.696 143.75 230.651 144.372 228.238 144.786C225.94 141.618 222.05 137.631 223.052 130.299C224.086 122.72 231.537 114.744 232.431 113.644C231.35 115.316 227.988 125.668 228.792 127.526C232.171 135.335 234.488 138.356 235.33 140.546C235.75 141.639 235.189 142.863 234.085 143.256Z" fill="#ED7D2B"/>
<path d="M211.535 112.785C212.251 111.482 212.643 110.305 212.167 109.653C208.997 105.303 202.154 99.3044 201.874 97.8066C202.552 99.4345 210.84 104.297 213.171 106.387C215.475 108.451 211.629 112.683 211.535 112.785Z" fill="#ED7D2B"/>
<path d="M72.4157 52.794C72.4157 52.794 73.9685 54.9219 73.8022 57.3486C73.6784 59.1502 72.0731 60.9718 71.9644 61.0444L74.4986 62.3959C74.4986 62.3959 76.3777 59.059 75.7451 56.2709C75.5513 55.417 74.6524 54.0505 73.9923 53.4416C73.2646 52.7715 72.4157 52.794 72.4157 52.794Z" fill="#6BB7BF"/>
<path d="M67.2347 53.0203L65.6294 49.4721C65.6294 49.4721 73.1196 49.7259 75.6014 55.8284C75.6014 55.8284 70.3603 52.0901 67.2347 53.0203Z" fill="#86D1CD"/>
<path d="M38.9408 143.282C38.9408 143.282 37.1555 141.934 36.6954 139.92C36.3528 138.425 37.2117 136.549 37.2818 136.464L34.89 135.988C34.89 135.988 34.1811 139.162 35.3814 141.273C35.7489 141.919 36.8154 142.811 37.5018 143.143C38.2557 143.509 38.9408 143.282 38.9408 143.282Z" fill="#6BB7BF"/>
<path d="M43.097 141.827L45.2736 144.317C45.2736 144.317 39.1224 145.951 35.6055 141.599C35.6055 141.598 40.784 143.349 43.097 141.827Z" fill="#86D1CD"/>
<path d="M312.714 154.877C312.714 154.877 312.558 152.537 316.95 151.405C318.918 150.897 323.301 151.8 320.523 156.112C317.633 160.598 315.057 158.977 315.057 158.977C315.057 158.977 321.084 154.259 318.673 152.102C316.011 149.722 314.988 154.439 314.988 154.439C314.988 154.439 313.914 154.383 312.714 154.877Z" fill="#F1A34F"/>
<path d="M314.274 159.248C314.274 159.248 312.631 158.357 313.282 156.385L315.643 156.795C315.643 156.795 314.735 158.931 316.955 159.19C316.955 159.19 314.819 159.698 314.274 159.248Z" fill="#DB7714"/>
<path d="M160.253 33.7691C160.253 33.7691 162.707 30.2346 166.47 32.7376L168.762 30.5459C168.762 30.5459 166.62 28.9206 161.682 31.8362C158.45 33.7428 160.253 33.7691 160.253 33.7691Z" fill="#5685D8"/>
<path d="M157.831 37.2335C157.831 37.2335 157.346 33.1764 164.136 30.6459C164.136 30.6459 161.682 31.8349 160.924 35.8795L157.831 37.2335Z" fill="#739AF0"/>
<path d="M185.112 15.7179C185.112 15.7179 187.119 14.4502 187.33 12.9186C187.33 12.9186 189.284 13.0237 189.707 13.6575C189.707 13.6575 188.809 16.1918 187.753 16.6681C187.753 16.6681 185.376 16.8269 185.112 15.7179Z" fill="#F99746"/>
<path d="M120.533 160.327C120.533 160.327 118.393 158.975 118.166 157.341C118.166 157.341 116.082 157.453 115.631 158.13C115.631 158.13 116.589 160.834 117.715 161.34C117.716 161.34 120.252 161.509 120.533 160.327Z" fill="#F99746"/>
<path d="M208.407 55.6496C208.407 55.6496 210.558 54.2918 210.784 52.6503C210.784 52.6503 212.878 52.764 213.331 53.4429C213.331 53.4429 212.369 56.1585 211.237 56.6686C211.237 56.6673 208.69 56.8373 208.407 55.6496Z" fill="#86D1CD"/>
<path d="M250.254 117.909C250.254 117.909 249.011 116.4 248.343 116.189C247.674 115.978 246.381 114.976 246.212 115.389C246.043 115.801 247.081 116.438 247.027 116.909C246.972 117.381 243.727 118.138 243.747 118.637C243.767 119.136 244.511 120.342 245.748 120.204C246.986 120.065 250.127 119.32 250.772 119.642C251.416 119.965 250.254 117.909 250.254 117.909Z" fill="#FFB27D"/>
<path d="M283.733 110.572C281.9 113.033 279.753 114.979 277.549 116.512C270.542 121.388 262.939 122.114 262.939 122.114C261.117 121.531 255.52 120.921 252.213 120.389H252.212C250.77 120.157 249.764 119.939 249.696 119.746L249.78 116.865C249.78 116.865 261.919 116.224 263.929 115.291C267.098 112.561 269.899 109.015 271.723 106.245C273.265 103.905 274.989 102.178 277.833 101.164C281.945 99.6958 289.423 102.926 283.733 110.572Z" fill="#AEC3FF"/>
<path d="M278.168 114.699L277.549 116.512C270.542 121.388 262.939 122.114 262.939 122.114C261.475 122.114 255.52 120.921 252.213 120.389C252.344 120.4 261.217 121.093 263.179 120.89C265.154 120.686 274.352 112.713 274.352 112.713L278.168 114.699Z" fill="#9DB0F4"/>
<path d="M270.244 205.988H283.658C284.619 205.337 283.399 198.964 283.399 198.964C283.399 198.964 279.738 197.575 279.105 200.399C278.472 203.222 274.442 204.12 272.31 204.464C270.851 204.701 270.39 205.503 270.244 205.988Z" fill="#233862"/>
<path d="M290.138 205.988H303.553C304.515 205.337 303.295 198.964 303.295 198.964C303.295 198.964 299.634 197.575 299.001 200.399C298.367 203.222 294.338 204.12 292.206 204.464C290.745 204.701 290.284 205.503 290.138 205.988Z" fill="#233862"/>
<path d="M273.853 140.979C273.853 140.979 274.456 148.502 275.165 157.545C276.127 169.828 278.725 200.284 278.725 200.284C278.725 200.284 280.428 201.737 284.201 200.942C284.201 200.942 287.412 190.435 288.372 178.444C288.387 178.248 288.402 178.049 288.417 177.851C289.31 165.644 290.699 139.938 290.699 139.938L273.853 140.979Z" fill="#2B478B"/>
<path d="M273.646 138.378C273.646 138.378 274.454 148.5 275.163 157.543L288.371 178.443C288.386 178.246 288.401 178.048 288.416 177.85C289.309 165.643 290.698 139.936 290.698 139.936L273.646 138.378Z" fill="#233862"/>
<path d="M277.496 138.378C277.496 138.378 287.075 162.223 290.137 171.262C292.319 177.701 298.47 200.287 298.47 200.287C298.47 200.287 301.145 201.101 303.393 199.527C303.393 199.527 305.682 176.451 301.059 169.945C298.606 166.493 300.449 134.06 290.504 133.781C280.561 133.505 277.496 138.378 277.496 138.378Z" fill="#2B478B"/>
<path d="M281.776 103.228C283.238 103.998 284.665 104.047 285.903 103.783C287.034 103.545 288.007 103.045 288.698 102.603C289.408 102.149 289.826 101.752 289.826 101.752C289.826 101.752 289.776 101.681 289.693 101.54C289.261 100.801 287.952 98.1442 288.534 93.8759C288.542 93.8196 288.119 93.8997 287.48 94.0497C285.58 94.4998 281.758 95.5837 281.589 95.6312C281.586 95.6312 281.583 95.6312 281.583 95.6312C281.583 95.6312 281.537 96.5289 281.379 98.138C281.367 98.2793 281.352 98.4281 281.337 98.5818C281.317 98.7706 281.298 98.9707 281.274 99.1769C281.097 100.851 281.776 103.228 281.776 103.228Z" fill="#FFB27D"/>
<path d="M281.38 98.1405C284.218 98.7907 288.453 94.6011 288.453 94.6011C288.142 94.371 287.817 94.1885 287.482 94.051C285.582 94.5011 281.76 95.585 281.591 95.6325C281.587 95.6325 281.585 95.6325 281.585 95.6325C281.585 95.6325 281.536 96.5302 281.38 98.1405Z" fill="#ED975D"/>
<path d="M280.414 95.4062C280.414 95.4062 281.58 95.825 283.068 96.025C285.243 96.3188 288.104 96.1451 289.003 93.5133C290.517 89.0837 292.45 86.4269 287.995 84.6178C285.611 83.6488 284.086 83.5976 283.049 83.9677C282.149 84.2865 281.619 84.9241 281.216 85.5542C280.352 86.9095 278.612 94.631 280.414 95.4062Z" fill="#FFB27D"/>
<path d="M277.712 85.9043C280.291 87.7584 283.859 85.9355 284.968 86.4294C286.076 86.922 286.275 88.7799 286.295 89.37C286.315 89.9613 286.392 90.4589 287.896 90.1051C288.143 90.0476 288.32 90.0639 288.443 90.1376C289.067 90.5077 288.269 92.303 288.029 92.6906C288.029 92.6906 287.683 93.9759 288.452 94.6023C288.544 94.6773 290.053 95.3362 293.69 89.7713C294.261 88.8974 294.808 86.9295 293.925 85.0354C293.044 83.14 289.358 81.3096 286.232 80.3382C285.061 79.9744 284.193 79.9881 283.513 80.2369C282.38 80.6507 281.775 81.7222 281.176 82.7974C280.17 84.604 277.712 85.9043 277.712 85.9043Z" fill="#A9453D"/>
<path d="M294.306 140.046C294.306 140.046 293.058 140.316 291.479 140.583C289.935 140.841 288.073 141.096 286.759 141.086C280.033 141.034 274.404 139.054 274.404 139.054C273.14 139.054 272.561 137.096 272.355 134.363C272.215 132.512 272.245 130.306 272.345 128.113C272.377 127.401 272.419 126.69 272.462 125.993C272.551 124.612 272.655 123.285 272.749 122.113C272.838 121.011 272.918 120.047 272.965 119.298C272.965 119.297 272.785 114.062 272.856 109.458C272.906 106.152 274.762 103.143 275.225 102.653C276.572 101.229 280.473 100.328 281.254 100.203C281.314 100.195 281.345 100.19 281.345 100.19C284.554 101.991 288.873 99.5569 288.873 99.5569C288.971 99.5732 289.067 99.597 289.162 99.617C289.48 99.5494 292.721 100.03 293.477 100.441C295.342 101.457 296.426 112.737 296.426 112.737C296.737 120.4 296.346 132.67 296.952 137.353C297.151 138.898 295.658 139.734 294.306 140.046Z" fill="#AEC3FF"/>
<path d="M289.14 99.6232C289.14 99.6232 284.36 104.553 280.943 103.543C280.943 103.543 280.488 102.878 282.027 102.664C283.566 102.45 285.228 102.538 289.14 99.6232Z" fill="#9DB0F4"/>
<path d="M280.38 92.5457C280.38 92.5457 280.287 93.1195 281.621 93.5771C281.621 93.5771 282.74 93.9609 282.945 93.3733C282.945 93.3733 282.056 92.5269 280.38 92.5457Z" fill="white"/>
<path d="M291.761 118.273C291.761 118.273 284.819 129.883 280.881 131.927C278.218 133.309 274.49 134.036 272.354 134.364C272.214 132.514 272.244 130.307 272.344 128.114C275.165 127.771 279.462 127.226 279.462 127.226L291.761 118.273Z" fill="#9DB0F4"/>
<path d="M282.617 112.44L278.918 125.795C278.918 125.795 274.565 126.07 272.463 125.994C272.552 124.612 272.554 124.566 272.648 123.393C272.648 123.393 277.646 120.787 282.617 112.44Z" fill="#9DB0F4"/>
<path d="M260.339 126.784C260.339 126.784 259.096 125.275 258.428 125.063C257.759 124.852 256.465 123.851 256.297 124.263C256.128 124.676 257.166 125.312 257.112 125.783C257.057 126.255 253.812 127.012 253.832 127.511C253.852 128.01 254.596 129.217 255.833 129.078C257.071 128.939 260.212 128.194 260.857 128.516C261.499 128.839 260.339 126.784 260.339 126.784Z" fill="#FFB27D"/>
<path d="M296.811 108.255C296.811 108.255 297.03 115.329 280.906 129.52L277.668 123.721C277.072 123.373 288.084 99.6883 291.249 99.8783C297.381 100.245 296.811 108.255 296.811 108.255Z" fill="#AEC3FF"/>
<path d="M279.597 123.03C279.597 123.03 261.262 125.127 260.583 125.491C259.904 125.855 258.448 127.274 258.933 129.053C258.933 129.053 268.425 130.246 273.646 130.224C278.151 130.206 281.065 129.483 281.065 129.483L279.597 123.03Z" fill="#AEC3FF"/>
<path d="M345.543 207.005H1.05616C0.823612 207.005 0.632324 206.814 0.632324 206.582V206.357C0.632324 206.124 0.822362 205.934 1.05616 205.934H345.543C345.776 205.934 345.966 206.124 345.966 206.357V206.582C345.966 206.814 345.776 207.005 345.543 207.005Z" fill="#2E3552"/>
</svg>
